<?xml version="1.0" encoding="utf-8"?>
<!-- Generator: Adobe Illustrator 25.0.1, SVG Export Plug-In . SVG Version: 6.00 Build 0)  -->
<svg version="1.1" id="Layer_1" xmlns="http://www.w3.org/2000/svg" xmlns:xlink="http://www.w3.org/1999/xlink" x="0px" y="0px"
	 viewBox="0 0 560 69" style="enable-background:new 0 0 560 69;" xml:space="preserve">
<style type="text/css">
	.st0{enable-background:new    ;}
	.st1{clip-path:url(#SVGID_2_);}
	.st2{opacity:0.5;fill:#FCBC08;enable-background:new    ;}
	.st3{fill:#2D2D29;}
</style>
<g class="st0">
	<path d="M113.3,44.2c0,4.2-3.3,6.6-9.7,6.6H91.2V26.6H103c6,0,9.2,2.5,9.2,6.3c0,2.4-1.2,4.3-3.2,5.3
		C111.6,39.1,113.3,41.2,113.3,44.2z M96.7,30.8v5.7h5.6c2.7,0,4.2-1,4.2-2.9c0-1.9-1.5-2.8-4.2-2.8H96.7z M107.7,43.6
		c0-2-1.6-3-4.5-3h-6.5v6h6.5C106.1,46.6,107.7,45.7,107.7,43.6z"/>
	<path d="M128.7,32v5c-0.4,0-0.8-0.1-1.2-0.1c-3,0-4.9,1.6-4.9,5.2v8.8h-5.4V32.2h5.1v2.5C123.7,32.9,125.9,32,128.7,32z"/>
	<path d="M148.3,40.2v10.6h-5v-2.3c-1,1.7-2.9,2.6-5.7,2.6c-4.4,0-6.9-2.4-6.9-5.6c0-3.3,2.3-5.6,8-5.6h4.3c0-2.3-1.4-3.7-4.3-3.7
		c-2,0-4,0.7-5.4,1.7l-1.9-3.8c2-1.5,5-2.2,8-2.2C145,32,148.3,34.6,148.3,40.2z M142.9,44.9V43h-3.7c-2.5,0-3.3,0.9-3.3,2.2
		c0,1.3,1.1,2.2,3,2.2C140.7,47.5,142.3,46.6,142.9,44.9z"/>
	<path d="M172.1,40.2v10.6h-5.4V41c0-3-1.4-4.4-3.8-4.4c-2.6,0-4.5,1.6-4.5,5v9.2h-5.4V32.2h5.1v2.2c1.5-1.6,3.6-2.5,6.1-2.5
		C168.8,32,172.1,34.5,172.1,40.2z"/>
	<path d="M196.1,25.2v25.6H191v-2.1c-1.3,1.6-3.3,2.4-5.8,2.4c-5.2,0-9.3-3.7-9.3-9.6s4-9.6,9.3-9.6c2.3,0,4.2,0.7,5.6,2.2v-9H196.1
		z M190.9,41.5c0-3.2-2.1-5.1-4.7-5.1c-2.7,0-4.8,1.9-4.8,5.1c0,3.2,2.1,5.1,4.8,5.1C188.8,46.7,190.9,44.7,190.9,41.5z"/>
	<path d="M231.1,41.5c0,5.8-4,9.6-9.3,9.6c-2.3,0-4.2-0.7-5.6-2.2v8.7h-5.4V32.2h5.1v2.1c1.3-1.6,3.3-2.4,5.8-2.4
		C227.1,32,231.1,35.7,231.1,41.5z M225.7,41.5c0-3.2-2-5.1-4.7-5.1c-2.7,0-4.7,1.9-4.7,5.1c0,3.2,2,5.1,4.7,5.1
		C223.6,46.7,225.7,44.7,225.7,41.5z"/>
	<path d="M252.8,43h-14.1c0.5,2.3,2.5,3.7,5.3,3.7c2,0,3.4-0.6,4.7-1.8l2.9,3.1c-1.7,2-4.3,3-7.7,3c-6.4,0-10.6-4-10.6-9.6
		c0-5.6,4.2-9.6,9.9-9.6c5.5,0,9.7,3.7,9.7,9.6C252.9,42,252.8,42.6,252.8,43z M238.7,39.9h9.2c-0.4-2.3-2.1-3.9-4.6-3.9
		C240.8,36,239.1,37.5,238.7,39.9z"/>
	<path d="M268,32v5c-0.4,0-0.8-0.1-1.2-0.1c-3,0-4.9,1.6-4.9,5.2v8.8h-5.4V32.2h5.1v2.5C263,32.9,265.2,32,268,32z"/>
	<path d="M269.5,49.1l1.8-3.9c1.7,1.1,4.2,1.8,6.5,1.8c2.5,0,3.4-0.7,3.4-1.7c0-3-11.2,0.1-11.2-7.4c0-3.5,3.2-6,8.6-6
		c2.6,0,5.4,0.6,7.1,1.6l-1.8,3.8c-1.8-1-3.7-1.4-5.4-1.4c-2.4,0-3.5,0.8-3.5,1.7c0,3.2,11.2,0.1,11.2,7.4c0,3.5-3.2,5.9-8.8,5.9
		C274.4,51.1,271.2,50.2,269.5,49.1z"/>
	<path d="M288.3,41.5c0-5.6,4.3-9.6,10.2-9.6c5.9,0,10.2,4,10.2,9.6s-4.3,9.6-10.2,9.6C292.6,51.1,288.3,47.1,288.3,41.5z
		 M303.2,41.5c0-3.2-2-5.1-4.7-5.1s-4.8,1.9-4.8,5.1c0,3.2,2.1,5.1,4.8,5.1S303.2,44.7,303.2,41.5z"/>
	<path d="M331.3,40.2v10.6h-5.4V41c0-3-1.4-4.4-3.8-4.4c-2.6,0-4.5,1.6-4.5,5v9.2h-5.4V32.2h5.1v2.2c1.5-1.6,3.6-2.5,6.1-2.5
		C327.9,32,331.3,34.5,331.3,40.2z"/>
	<path d="M352.6,40.2v10.6h-5v-2.3c-1,1.7-2.9,2.6-5.7,2.6c-4.4,0-6.9-2.4-6.9-5.6c0-3.3,2.3-5.6,8-5.6h4.3c0-2.3-1.4-3.7-4.3-3.7
		c-2,0-4,0.7-5.4,1.7l-1.9-3.8c2-1.5,5-2.2,8-2.2C349.3,32,352.6,34.6,352.6,40.2z M347.2,44.9V43h-3.7c-2.5,0-3.3,0.9-3.3,2.2
		c0,1.3,1.1,2.2,3,2.2C345,47.5,346.6,46.6,347.2,44.9z"/>
	<path d="M357.4,25.2h5.4v25.6h-5.4V25.2z"/>
	<path d="M367.2,26.6c0-1.7,1.3-3,3.3-3c2,0,3.4,1.2,3.4,2.9c0,1.8-1.3,3.1-3.4,3.1C368.5,29.6,367.2,28.3,367.2,26.6z M367.8,32.2
		h5.4v18.6h-5.4V32.2z"/>
	<path d="M390.2,49.9c-1.1,0.8-2.7,1.2-4.4,1.2c-4.4,0-6.9-2.2-6.9-6.7v-7.6H376v-4.1h2.9v-4.5h5.4v4.5h4.6v4.1h-4.6v7.6
		c0,1.6,0.9,2.5,2.3,2.5c0.8,0,1.6-0.2,2.2-0.7L390.2,49.9z"/>
	<path d="M411.3,32.2L402.9,52c-1.8,4.5-4.4,5.8-7.7,5.8c-1.9,0-4-0.6-5.2-1.7l2-3.8c0.8,0.7,2,1.2,3,1.2c1.5,0,2.3-0.7,3-2.3
		l0.1-0.2l-8-18.7h5.6l5.2,12.6l5.2-12.6H411.3z"/>
</g>
<g>
	<g>
		<defs>
			<rect id="SVGID_1_" y="0" width="67.3" height="69"/>
		</defs>
		<clipPath id="SVGID_2_">
			<use xlink:href="#SVGID_1_"  style="overflow:visible;"/>
		</clipPath>
		<g class="st1">
			<path class="st2" d="M52.3,29.8c8.3,0,14.9-6.7,14.9-14.9S60.6,0,52.3,0S37.4,6.7,37.4,14.9C37.4,23.2,44.1,29.8,52.3,29.8z"/>
			<path class="st3" d="M65.4,69H1.9c-1,0-1.9-0.8-1.9-1.9C0,55,0,55.7,0.1,55.3L7.6,33c0.3-0.7,1-1.3,1.8-1.3H58
				c0.8,0,1.5,0.5,1.8,1.3c8.1,24.2,7.6,22.5,7.6,23v11.2C67.2,68.2,66.4,69,65.4,69z M3.7,65.3h59.8v-9l-6.9-20.8H10.7l-7,20.7
				V65.3z"/>
			<path class="st3" d="M65.4,35.4H1.9c-2.5,0-2.5-3.7,0-3.7h63.5C67.9,31.7,67.9,35.4,65.4,35.4z"/>
			<path class="st3" d="M0,37.3v-7.5c0-2.5,3.7-2.5,3.7,0v7.5C3.7,39.8,0,39.8,0,37.3z"/>
			<path class="st3" d="M63.5,37.3v-7.5c0-2.5,3.7-2.5,3.7,0v7.5C67.2,39.8,63.5,39.8,63.5,37.3z"/>
			<path class="st3" d="M48.6,59.7H18.7c-2.5,0-2.5-3.7,0-3.7h29.9C51.1,55.9,51.1,59.7,48.6,59.7z"/>
			<path class="st3" d="M11.2,59.7H9.3c-2.5,0-2.5-3.7,0-3.7h1.9C13.7,55.9,13.7,59.7,11.2,59.7z"/>
			<path class="st3" d="M57.9,59.7H56c-2.5,0-2.5-3.7,0-3.7h1.9C60.4,55.9,60.4,59.7,57.9,59.7z"/>
			<path class="st3" d="M39.2,52.2h-1.9c-2.5,0-2.5-3.7,0-3.7h1.9C41.7,48.5,41.7,52.2,39.2,52.2z"/>
			<path class="st3" d="M29.9,52.2H28c-2.5,0-2.5-3.7,0-3.7h1.9C32.4,48.5,32.4,52.2,29.9,52.2z"/>
			<path class="st3" d="M22.4,52.2h-1.9c-2.5,0-2.5-3.7,0-3.7h1.9C24.9,48.5,24.9,52.2,22.4,52.2z"/>
			<path class="st3" d="M14.9,52.2H13c-2.5,0-2.5-3.7,0-3.7h1.9C17.4,48.5,17.4,52.2,14.9,52.2z"/>
			<path class="st3" d="M54.2,52.2h-1.9c-2.5,0-2.5-3.7,0-3.7h1.9C56.7,48.5,56.7,52.2,54.2,52.2z"/>
			<path class="st3" d="M46.7,52.2h-1.9c-2.5,0-2.5-3.7,0-3.7h1.9C49.2,48.5,49.2,52.2,46.7,52.2z"/>
			<path class="st3" d="M39.2,44.8h-1.9c-2.5,0-2.5-3.7,0-3.7h1.9C41.7,41,41.7,44.8,39.2,44.8z"/>
			<path class="st3" d="M29.9,44.8H28c-2.5,0-2.5-3.7,0-3.7h1.9C32.4,41,32.4,44.8,29.9,44.8z"/>
			<path class="st3" d="M20.5,44.8h-1.9c-2.5,0-2.5-3.7,0-3.7h1.9C23,41,23,44.8,20.5,44.8z"/>
			<path class="st3" d="M48.6,44.8h-1.9c-2.5,0-2.5-3.7,0-3.7h1.9C51.1,41,51.1,44.8,48.6,44.8z"/>
			<path class="st3" d="M11.2,13.1H1.9c-1,0-1.9-0.8-1.9-1.9V8.6c0-3,2.3-6,5.1-6.6C9.3,1.1,13,4.3,13,8.4v2.8
				C13.1,12.2,12.3,13.1,11.2,13.1z M3.7,9.3h5.6V8.4c0-1.8-1.6-3.1-3.4-2.7C4.8,5.9,3.7,7.3,3.7,8.6V9.3z"/>
			<path class="st3" d="M56,35.4H11.2c-1,0-1.9-0.8-1.9-1.9c0-26.9,0.4-26-0.8-27.2C8,5.9,7.3,5.6,6.5,5.6C4,5.6,4,1.9,6.5,1.9h44.6
				c3.8,0,6.8,3.1,6.8,6.8v24.9C57.9,34.6,57.1,35.4,56,35.4z M13.1,31.7h41.1v-23c0-1.7-1.4-3.1-3.1-3.1H12.5
				C13.3,7.5,13.1,6.8,13.1,31.7z"/>
			<path class="st3" d="M35.5,11.2c0,2.5-3.7,2.5-3.7,0S35.5,8.7,35.5,11.2z"/>
			<path class="st3" d="M43,11.2c0,2.5-3.7,2.5-3.7,0S43,8.7,43,11.2z"/>
			<path class="st3" d="M50.4,11.2c0,2.5-3.7,2.5-3.7,0S50.4,8.7,50.4,11.2z"/>
			<path class="st3" d="M48.6,20.5H18.7c-2.5,0-2.5-3.7,0-3.7h29.9C51.1,16.8,51.1,20.5,48.6,20.5z"/>
			<path class="st3" d="M48.6,28H18.7c-2.5,0-2.5-3.7,0-3.7h29.9C51.1,24.2,51.1,28,48.6,28z"/>
		</g>
	</g>
</g>
</svg>
