<?xml version="1.0" encoding="utf-8"?>
<!-- Generator: Adobe Illustrator 25.0.1, SVG Export Plug-In . SVG Version: 6.00 Build 0)  -->
<svg version="1.1" id="Layer_1" xmlns="http://www.w3.org/2000/svg" xmlns:xlink="http://www.w3.org/1999/xlink" x="0px" y="0px"
	 viewBox="0 0 560 69" style="enable-background:new 0 0 560 69;" xml:space="preserve">
<style type="text/css">
	.st0{enable-background:new    ;}
	.st1{clip-path:url(#SVGID_2_);}
	.st2{opacity:0.5;fill:#FCBC08;enable-background:new    ;}
	.st3{fill:#2D2D29;}
</style>
<g class="st0">
	<path d="M112.4,44.6c0,4.2-3.3,6.6-9.7,6.6H90.2V26.9H102c6.1,0,9.2,2.5,9.2,6.3c0,2.4-1.2,4.3-3.2,5.3
		C110.7,39.4,112.4,41.5,112.4,44.6z M95.7,31.2v5.7h5.6c2.7,0,4.2-1,4.2-2.9c0-1.9-1.5-2.8-4.2-2.8H95.7z M106.8,44
		c0-2-1.6-3-4.5-3h-6.6v6h6.6C105.2,47,106.8,46.1,106.8,44z"/>
	<path d="M127.9,32.3v5c-0.5,0-0.8-0.1-1.2-0.1c-3,0-5,1.6-5,5.2v8.8h-5.4V32.5h5.2V35C122.8,33.2,125,32.3,127.9,32.3z"/>
	<path d="M147.5,40.6v10.6h-5.1v-2.3c-1,1.7-2.9,2.6-5.7,2.6c-4.4,0-7-2.4-7-5.7c0-3.3,2.3-5.6,8-5.6h4.3c0-2.3-1.4-3.7-4.3-3.7
		c-2,0-4,0.7-5.4,1.7l-1.9-3.8c2-1.5,5.1-2.3,8-2.3C144.2,32.3,147.5,34.9,147.5,40.6z M142.1,45.3v-1.9h-3.7
		c-2.5,0-3.3,0.9-3.3,2.2c0,1.4,1.1,2.3,3.1,2.3C139.9,47.8,141.5,47,142.1,45.3z"/>
	<path d="M171.5,40.5v10.7H166v-9.8c0-3-1.4-4.4-3.8-4.4c-2.6,0-4.5,1.6-4.5,5v9.2h-5.4V32.5h5.2v2.2c1.5-1.6,3.6-2.5,6.2-2.5
		C168.1,32.3,171.5,34.8,171.5,40.5z"/>
	<path d="M195.6,25.5v25.7h-5.2V49c-1.4,1.6-3.3,2.4-5.8,2.4c-5.3,0-9.3-3.7-9.3-9.6s4.1-9.6,9.3-9.6c2.3,0,4.2,0.7,5.6,2.3v-9
		H195.6z M190.2,41.9c0-3.2-2.1-5.2-4.8-5.2c-2.7,0-4.8,1.9-4.8,5.2c0,3.2,2.1,5.2,4.8,5.2C188.2,47,190.2,45.1,190.2,41.9z"/>
	<path d="M210.4,25.5h5.4v25.7h-5.4V25.5z"/>
	<path d="M219.4,41.9c0-5.6,4.3-9.6,10.3-9.6c5.9,0,10.2,4,10.2,9.6s-4.3,9.6-10.2,9.6C223.7,51.5,219.4,47.5,219.4,41.9z
		 M234.4,41.9c0-3.2-2-5.2-4.7-5.2c-2.7,0-4.8,1.9-4.8,5.2c0,3.2,2.1,5.2,4.8,5.2C232.4,47,234.4,45.1,234.4,41.9z"/>
	<path d="M242.1,41.9c0-5.6,4.3-9.6,10.3-9.6c5.9,0,10.2,4,10.2,9.6s-4.3,9.6-10.2,9.6C246.4,51.5,242.1,47.5,242.1,41.9z
		 M257.1,41.9c0-3.2-2-5.2-4.7-5.2c-2.7,0-4.8,1.9-4.8,5.2c0,3.2,2.1,5.2,4.8,5.2C255.1,47,257.1,45.1,257.1,41.9z"/>
	<path d="M274.2,43.9l-2.6,2.6v4.7h-5.4V25.5h5.4V40l7.9-7.5h6.4l-7.8,7.9l8.5,10.7h-6.6L274.2,43.9z"/>
</g>
<g>
	<g>
		<defs>
			<rect id="SVGID_1_" y="0" width="67" height="69"/>
		</defs>
		<clipPath id="SVGID_2_">
			<use xlink:href="#SVGID_1_"  style="overflow:visible;"/>
		</clipPath>
		<g class="st1">
			<path class="st2" d="M33.5,29.8c8.2,0,14.9-6.7,14.9-14.9S41.7,0,33.5,0S18.6,6.7,18.6,14.9S25.3,29.8,33.5,29.8z"/>
			<path class="st3" d="M33.5,55.9C22.1,55.9,13,46.6,13,35.4c0-11.3,9.2-20.5,20.5-20.5S54,24.1,54,35.4
				C54,46.6,44.9,55.9,33.5,55.9z M33.5,18.6c-17,0-23.2,22.7-8.4,31.3c11.1,6.4,25.1-1.6,25.1-14.5C50.3,26.2,42.7,18.6,33.5,18.6z
				"/>
			<path class="st3" d="M33.5,39.2c-4.1,0-7.4-3.3-7.4-7.5c0-4.1,3.3-7.5,7.4-7.5s7.4,3.3,7.4,7.5C41,35.8,37.6,39.2,33.5,39.2z
				 M33.5,28c-2,0-3.7,1.7-3.7,3.7c0,2.1,1.7,3.7,3.7,3.7s3.7-1.7,3.7-3.7S35.6,28,33.5,28z"/>
			<path class="st3" d="M23.3,53.2c-1.2-0.7-0.9-1.4-0.9-6.6c0-6.2,5-11.2,11.2-11.2s11.2,5,11.2,11.2c0,5.3,0.3,5.9-0.9,6.6
				C37.4,56.9,29.6,56.9,23.3,53.2z M26.1,50.5c4.6,2.3,10.3,2.3,14.9,0v-3.8c0-4.1-3.3-7.5-7.4-7.5s-7.4,3.3-7.4,7.5L26.1,50.5
				L26.1,50.5z"/>
			<path class="st3" d="M37.2,18.6c-1.6,0-2.5-2-1.3-3.2c8.1-8.1,7.7-8,8.8-8H54c2.5,0,2.5,3.7,0,3.7h-8.5
				C37.9,18.7,38.3,18.6,37.2,18.6z"/>
			<path class="st3" d="M59.6,16.8c-4.1,0-7.4-3.3-7.4-7.5c0-4.1,3.3-7.5,7.4-7.5S67,5.1,67,9.3C67,13.4,63.7,16.8,59.6,16.8z
				 M59.6,5.6c-2,0-3.7,1.7-3.7,3.7c0,2.1,1.7,3.7,3.7,3.7s3.7-1.7,3.7-3.7S61.6,5.6,59.6,5.6z"/>
			<path class="st3" d="M22.3,63.4H13c-2.5,0-2.5-3.7,0-3.7h8.5l6.9-6.9c1.8-1.8,4.4,0.9,2.6,2.6C23,63.6,23.4,63.4,22.3,63.4z"/>
			<path class="st3" d="M7.4,69C3.3,69,0,65.7,0,61.5S3.3,54,7.4,54s7.4,3.3,7.4,7.5S11.6,69,7.4,69z M7.4,57.8
				c-2,0-3.7,1.7-3.7,3.7c0,2.1,1.7,3.7,3.7,3.7s3.7-1.7,3.7-3.7C11.2,59.5,9.5,57.8,7.4,57.8z"/>
			<path class="st3" d="M7.4,28C3.3,28,0,24.6,0,20.5S3.3,13,7.4,13s7.4,3.3,7.4,7.5C14.9,24.6,11.6,28,7.4,28z M7.4,16.8
				c-2,0-3.7,1.7-3.7,3.7c0,2.1,1.7,3.7,3.7,3.7s3.7-1.7,3.7-3.7C11.2,18.5,9.5,16.8,7.4,16.8z"/>
			<path class="st3" d="M59.6,57.8c-4.1,0-7.4-3.3-7.4-7.5c0-4.1,3.3-7.5,7.4-7.5s7.4,3.3,7.4,7.5S63.7,57.8,59.6,57.8z M59.6,46.6
				c-2,0-3.7,1.7-3.7,3.7c0,2.1,1.7,3.7,3.7,3.7s3.7-1.7,3.7-3.7S61.6,46.6,59.6,46.6z"/>
			<path class="st3" d="M57.7,44.8v-5.6h-5.6c-2.5,0-2.5-3.7,0-3.7h7.4c1,0,1.9,0.8,1.9,1.9v7.5C61.4,47.2,57.7,47.2,57.7,44.8z"/>
			<path class="st3" d="M14.9,37.3H7.4c-1,0-1.9-0.8-1.9-1.9V28c0-2.5,3.7-2.5,3.7,0v5.6h5.6C17.4,33.6,17.4,37.3,14.9,37.3z"/>
		</g>
	</g>
</g>
</svg>
