<svg xmlns="http://www.w3.org/2000/svg" width="120" height="124" viewBox="0 0 120 124" fill="none"><style>.a{fill:#2D2D29;}</style><g clip-path="url(#clip0)"><path d="M93.3 53.2C108 53.2 120 41.3 120 26.6 120 11.9 108 0 93.3 0 78.6 0 66.6 11.9 66.6 26.6 66.6 41.3 78.6 53.2 93.3 53.2Z" style="fill:#FCBC08;opacity:0.5"/><path d="M116.6 123.1H3.3C1.5 123.1 0 121.6 0 119.8 0 98.2-0.1 99.5 0.2 98.7L13.5 58.8C14 57.5 15.2 56.6 16.7 56.6H103.3C104.7 56.6 106 57.5 106.5 58.8 120.9 102 120 99 120 99.8V119.8C120 121.6 118.5 123.1 116.6 123.1ZM6.7 116.4H113.3V100.3L100.9 63.2H19.1L6.7 100.3V116.4Z" class="a"/><path d="M116.6 63.2H3.3C-1.1 63.2-1.1 56.6 3.3 56.6H116.6C121.1 56.6 121.1 63.2 116.6 63.2Z" class="a"/><path d="M0 66.5V53.2C0 48.8 6.7 48.8 6.7 53.2V66.5C6.7 70.9 0 70.9 0 66.5Z" class="a"/><path d="M113.3 66.5V53.2C113.3 48.8 120 48.8 120 53.2V66.5C120 70.9 113.3 70.9 113.3 66.5Z" class="a"/><path d="M86.6 106.5H33.3C28.9 106.5 28.9 99.8 33.3 99.8H86.6C91.1 99.8 91.1 106.5 86.6 106.5Z" class="a"/><path d="M20 106.5H16.7C12.3 106.5 12.3 99.8 16.7 99.8H20C24.4 99.8 24.4 106.5 20 106.5Z" class="a"/><path d="M103.3 106.5H100C95.6 106.5 95.6 99.8 100 99.8H103.3C107.7 99.8 107.7 106.5 103.3 106.5Z" class="a"/><path d="M70 93.2H66.6C62.2 93.2 62.2 86.5 66.6 86.5H70C74.4 86.5 74.4 93.2 70 93.2Z" class="a"/><path d="M53.3 93.2H50C45.6 93.2 45.6 86.5 50 86.5H53.3C57.8 86.5 57.8 93.2 53.3 93.2Z" class="a"/><path d="M40 93.2H36.7C32.3 93.2 32.3 86.5 36.7 86.5H40C44.4 86.5 44.4 93.2 40 93.2Z" class="a"/><path d="M26.7 93.2H23.3C18.9 93.2 18.9 86.5 23.3 86.5H26.7C31.1 86.5 31.1 93.2 26.7 93.2Z" class="a"/><path d="M96.6 93.2H93.3C88.9 93.2 88.9 86.5 93.3 86.5H96.6C101.1 86.5 101.1 93.2 96.6 93.2Z" class="a"/><path d="M83.3 93.2H80C75.6 93.2 75.6 86.5 80 86.5H83.3C87.7 86.5 87.7 93.2 83.3 93.2Z" class="a"/><path d="M70 79.8H66.6C62.2 79.8 62.2 73.2 66.6 73.2H70C74.4 73.2 74.4 79.8 70 79.8Z" class="a"/><path d="M53.3 79.8H50C45.6 79.8 45.6 73.2 50 73.2H53.3C57.8 73.2 57.8 79.8 53.3 79.8Z" class="a"/><path d="M36.7 79.8H33.3C28.9 79.8 28.9 73.2 33.3 73.2H36.7C41.1 73.2 41.1 79.8 36.7 79.8Z" class="a"/><path d="M86.6 79.8H83.3C78.9 79.8 78.9 73.2 83.3 73.2H86.6C91.1 73.2 91.1 79.8 86.6 79.8Z" class="a"/><path d="M20 23.3H3.3C1.5 23.3 0 21.8 0 20V15.4C0 9.9 4.1 4.7 9.2 3.6 16.6 2 23.3 7.6 23.3 15V20C23.3 21.8 21.9 23.3 20 23.3ZM6.7 16.6H16.7V15C16.7 11.8 13.8 9.4 10.6 10.1 8.6 10.5 6.7 13.1 6.7 15.4V16.6Z" class="a"/><path d="M100 63.2H20C18.2 63.2 16.7 61.7 16.7 59.9 16.7 11.9 17.3 13.5 15.2 11.4 14.3 10.5 13 10 11.7 10 7.3 10 7.3 3.3 11.7 3.3H91.1C97.9 3.3 103.3 8.8 103.3 15.5V59.9C103.3 61.7 101.8 63.2 100 63.2ZM23.3 56.6H96.6V15.5C96.6 12.4 94.2 10 91.1 10H22.2C23.8 13.3 23.3 12 23.3 56.6Z" class="a"/><path d="M63.3 20C63.3 24.4 56.7 24.4 56.7 20 56.7 15.6 63.3 15.6 63.3 20Z" class="a"/><path d="M76.6 20C76.6 24.4 70 24.4 70 20 70 15.6 76.6 15.6 76.6 20Z" class="a"/><path d="M90 20C90 24.4 83.3 24.4 83.3 20 83.3 15.6 90 15.6 90 20Z" class="a"/><path d="M86.6 36.6H33.3C28.9 36.6 28.9 29.9 33.3 29.9H86.6C91.1 29.9 91.1 36.6 86.6 36.6Z" class="a"/><path d="M86.6 49.9H33.3C28.9 49.9 28.9 43.2 33.3 43.2H86.6C91.1 43.2 91.1 49.9 86.6 49.9Z" class="a"/></g><defs><clipPath><rect width="120" height="123.1" fill="white"/></clipPath></defs></svg>
