<svg xmlns="http://www.w3.org/2000/svg" width="120" height="150" viewBox="0 0 120 150" fill="none"><style>.a{fill:#2D2D29;}</style><g clip-path="url(#clip0)"><path d="M30 141.9C46.6 141.9 60 128.6 60 112 60 95.5 46.6 82.2 30 82.2 13.4 82.2 0 95.5 0 112 0 128.6 13.4 141.9 30 141.9Z" style="fill:#FCBC08;opacity:0.5"/><path d="M60 112C37.3 112 18.8 93.6 18.8 71V3.7C18.8 1.7 20.4 0 22.5 0H97.5C99.6 0 101.3 1.7 101.3 3.7V71C101.3 93.6 82.8 112 60 112ZM26.3 7.5V71C26.3 89.5 41.4 104.6 60 104.6 78.6 104.6 93.8 89.5 93.8 71V7.5H26.3Z" class="a"/><path d="M93.8 74.7V24.3C93.8 17.1 99.6 11.2 106.9 11.2 114.1 11.2 120 17.1 120 24.3V56C120 76.6 93.8 83.7 93.8 74.7ZM101.3 24.3V70.5C107.7 68.8 112.5 63 112.5 56V24.3C112.5 16.8 101.3 16.9 101.3 24.3Z" class="a"/><path d="M0 56V24.3C0 17.1 5.9 11.2 13.1 11.2 20.4 11.2 26.3 17.1 26.3 24.3V74.7C26.3 83.7 0 76.6 0 56ZM7.5 24.3V56C7.5 63 12.3 68.8 18.8 70.5V24.3C18.8 16.8 7.5 16.9 7.5 24.3Z" class="a"/><path d="M86.3 149.4H33.8C31.7 149.4 30 147.7 30 145.7V123.3C30 121.2 31.7 119.5 33.8 119.5H86.3C88.3 119.5 90 121.2 90 123.3V145.7C90 147.7 88.3 149.4 86.3 149.4ZM37.5 141.9H82.5V127H37.5V141.9Z" class="a"/><path d="M67.5 127H52.5C50.4 127 48.8 125.3 48.8 123.3V108.3C48.8 106.3 50.4 104.6 52.5 104.6H67.5C69.6 104.6 71.3 106.3 71.3 108.3V123.3C71.3 125.3 69.6 127 67.5 127ZM56.3 119.5H63.8V112H56.3V119.5Z" class="a"/><path d="M93.8 149.4H26.3C21.3 149.4 21.3 141.9 26.3 141.9H93.8C98.7 141.9 98.7 149.4 93.8 149.4Z" class="a"/><path d="M60 78.4C45.5 78.4 33.8 66.6 33.8 52.3 33.8 37.9 45.5 26.1 60 26.1 74.5 26.1 86.3 37.9 86.3 52.3 86.3 66.6 74.6 78.4 60 78.4ZM60 33.6C40.9 33.6 34.1 58.9 50.6 68.4 63 75.7 78.8 66.6 78.8 52.3 78.8 42 70.4 33.6 60 33.6Z" class="a"/><path d="M71.3 97.1C69.6 97.1 69.5 96.7 60 90.4 50.8 96.5 49.6 98.1 47 96.7 44.3 95.2 45 95 45 71.7 45 68.8 48.2 67 50.7 68.5 56.3 71.8 63.7 71.8 69.3 68.5 70.5 67.8 71.9 67.8 73.1 68.4 75.6 69.9 75 70 75 93.4 75 95.4 73.3 97.1 71.3 97.1ZM67.5 86.4V77.4C62.7 78.8 57.3 78.8 52.5 77.4V86.4C61.1 80.7 59 80.7 67.5 86.4Z" class="a"/><path d="M64.7 62.1C63.6 62.1 63.3 61.9 60 60.2 56.6 62 55.3 63 53.2 61.4 51 59.9 51.6 58 52.2 54.6 49.5 51.9 48.2 50.9 48.9 48.5 49.8 46 51.8 46 55.2 45.5L56.7 42.5C57.9 40 62.1 40 63.4 42.5L64.8 45.5 68.1 45.9C71.1 46.4 72.4 50.2 70.1 52.3L67.8 54.6 68.4 57.8C68.7 60.1 67 62.1 64.7 62.1ZM60 52.3C60.2 52.3 60.2 52.3 60.2 52 59.9 51.8 60.1 51.8 59.8 52 59.9 52.2 59.8 52.3 60 52.3Z" class="a"/><path d="M48.8 18.7C48.8 23.6 41.3 23.6 41.3 18.7 41.3 13.7 48.8 13.7 48.8 18.7Z" class="a"/><path d="M63.8 18.7C63.8 23.6 56.3 23.6 56.3 18.7 56.3 13.7 63.8 13.7 63.8 18.7Z" class="a"/><path d="M78.8 18.7C78.8 23.6 71.3 23.6 71.3 18.7 71.3 13.7 78.8 13.7 78.8 18.7Z" class="a"/></g><defs><clipPath><rect width="120" height="149.4" fill="white"/></clipPath></defs></svg>
