<svg xmlns="http://www.w3.org/2000/svg" width="1501" height="402" viewBox="0 0 1501 402" fill="none"><style>.a{fill:#1F2D42;}.b{fill:white;}.c{fill:black;}</style><g clip-path="url(#clip0)"><path d="M597.6 152.8C594.6 71.8 526.7 4.4 442.7 2.4 383.2 2.4 328.9 36.7 302.8 89.3H154C69.4 90.8 0.7 160.3 0 244.2 -0.7 329.1 68.4 400.4 154 402 213.4 402 267.7 367.7 293.9 315.1H442.7C531.2 312.9 600.8 238 597.6 152.8ZM266.2 223.2C266.2 223.2 262.9 244.6 256.7 267L256.4 268.1H256.3C251.4 285.8 244.6 304.1 236.4 312.4 216.7 336.3 187.2 351.1 155.3 351.4 154.7 351.4 154.4 351.4 154.4 351.4 152.5 351.4 150.6 351.3 148.6 351.2 148.3 351.2 147.9 351.1 147.5 351.1 146 351.1 144.3 350.9 142.8 350.8 142.5 350.8 142.2 350.7 141.9 350.7 140.2 350.5 138.4 350.2 136.7 350 136.6 350 136.5 350 136.5 350 110.9 345.5 88.5 331.9 72.6 312.6L72.5 312.5C62.2 299.8 54.8 284.7 51.2 268.2 51.1 267.9 51.1 267.6 51 267.3 50.9 266.8 50.8 266.2 50.7 265.7 50.5 264.5 50.3 263.3 50.1 262.1 50 261.4 49.9 260.8 49.8 260.1 49.6 259 49.5 257.9 49.3 256.7 49.2 255.8 49.2 254.9 49.2 254 49.1 253 49 252.2 49 251.3 48.9 249.5 48.8 247.6 48.8 245.8 48.8 243.9 48.9 242.1 49 240.2 49.1 239.3 49.1 238.5 49.2 237.6 49.2 236.6 49.2 235.7 49.3 234.8 49.4 233.7 49.6 232.6 49.8 231.5 49.9 230.8 50 230.2 50.1 229.5 50.3 228.3 50.5 227.1 50.7 225.9 50.8 225.3 50.9 224.8 51 224.2 51.1 223.9 51.1 223.7 51.2 223.4 61.5 175.9 103.8 140.1 154.3 140.1H284.1L266.2 223.2ZM442.1 53.9C444 53.9 445.9 54 447.8 54.1 448.2 54.1 448.6 54.2 449 54.2 450.5 54.3 452.2 54.4 453.7 54.5 454 54.5 454.3 54.6 454.6 54.6 456.3 54.8 458.1 55.1 459.7 55.4 459.8 55.4 459.9 55.4 459.9 55.4 485.3 59.7 507.6 73.2 523.2 92.4L523.3 92.5C533.5 105 540.9 120 544.5 136.4 544.6 136.7 544.6 137 544.7 137.3 544.8 137.7 544.9 138.3 544.9 138.7 545.2 139.9 545.4 141.2 545.6 142.4 545.7 143.1 545.8 143.7 545.9 144.3 546 145.4 546.1 146.6 546.3 147.7 546.4 148.6 546.5 149.4 546.5 150.3 546.6 151.3 546.7 152.1 546.7 153 546.8 154.8 546.9 156.7 546.9 158.5 546.9 160.4 546.8 162.2 546.7 164.1 546.6 165 546.6 165.8 546.5 166.7 546.4 167.7 546.4 168.6 546.3 169.4 546.2 170.5 546 171.7 545.9 172.8 545.8 173.5 545.7 174.1 545.6 174.7 545.4 175.9 545.1 177.1 544.9 178.3 544.9 178.8 544.8 179.4 544.7 179.8 544.6 180.1 544.6 180.4 544.5 180.6 534.3 227.8 492.3 263.3 442.1 263.3H313.4L331.3 181C331.3 181 334.8 159.7 340.7 137.7L341 136.5H341.1" class="a"/><path d="M550.5 136.3C550.6 136.9 550.7 137.3 550.7 137.9 550.7 137.3 550.7 136.9 550.5 136.3Z" class="a"/><path d="M546.7 153.3C546.8 155.1 546.9 157 546.9 158.8 546.9 157 546.8 155.1 546.7 153.3Z" class="a"/><path d="M545.6 142.6C545.7 143.2 545.8 143.9 545.9 144.4 545.8 143.9 545.7 143.2 545.6 142.6Z" class="a"/><path d="M546.3 147.9C546.4 148.9 546.5 149.7 546.5 150.6 546.4 149.7 546.4 148.8 546.3 147.9Z" class="a"/><path d="M331.3 181L340.7 137.7C334.8 159.7 331.3 181 331.3 181Z" class="a"/><path d="M454.5 54.7C456.2 54.9 458 55.2 459.6 55.5 458 55.2 456.2 54.9 454.5 54.7Z" class="a"/><path d="M449 54.2C450.5 54.3 452.2 54.4 453.7 54.5 452.2 54.4 450.6 54.3 449 54.2Z" class="a"/><path d="M545.6 174.9C545.4 176.2 545.1 177.4 544.9 178.6 545.2 177.4 545.4 176.2 545.6 174.9Z" class="a"/><path d="M546.3 169.7C546.2 170.8 546 172 545.9 173.1 546 171.9 546.1 170.8 546.3 169.7Z" class="a"/><path d="M544.5 181C544.6 180.7 544.6 180.5 544.7 180.2 544.6 180.5 544.6 180.7 544.5 181Z" class="a"/><path d="M442.1 53.9C444 53.9 445.9 54 447.9 54.1 445.9 54 444.1 53.9 442.1 53.9Z" class="a"/><path d="M546.7 164.2C546.6 165.2 546.6 166 546.5 166.9 546.6 166.1 546.7 165.2 546.7 164.2Z" class="a"/><path d="M266.2 223C266.2 223 262.9 244.6 256.7 267L256.4 268.2H256.3C251.4 286.1 244.6 304.4 236.4 312.7 216.7 336.9 187.2 351.8 155.3 352.1 154.7 352.1 154.4 352.1 154.4 352.1 152.5 352.1 150.6 352 148.6 351.9 148.3 351.9 147.9 351.8 147.5 351.8 146 351.7 144.3 351.5 142.8 351.3 142.5 351.3 142.2 351.2 141.9 351.2 140.2 351.1 138.4 350.8 136.7 350.5 136.6 350.5 136.5 350.5 136.5 350.5 110.9 346.1 88.5 332.4 72.6 312.8L72.5 312.7C62.2 299.9 54.8 284.7 51.2 268.2 51.1 267.9 51.1 267.6 51 267.3 50.9 266.8 50.8 266.2 50.7 265.7 50.5 264.5 50.3 263.3 50.1 262 50 261.3 49.9 260.7 49.8 260 49.6 258.8 49.5 257.7 49.3 256.5 49.2 255.6 49.2 254.7 49.2 253.8 49.1 252.9 49 251.9 49 251.1 48.9 249.3 48.8 247.4 48.8 245.6 48.8 243.7 48.9 241.9 49 240.1 49.1 239.1 49.1 238.2 49.2 237.4 49.2 236.5 49.2 235.5 49.3 234.6 49.4 233.5 49.6 232.3 49.8 231.2 49.9 230.6 50 229.9 50.1 229.2 50.3 228 50.5 226.8 50.7 225.5 50.8 224.9 50.9 224.4 51 223.8 51.1 223.6 51.1 223.3 51.2 223 61.5 175.1 103.8 139.1 154.3 139.1H284.1L266.2 223Z" class="b"/><path d="M442.1 53.9C442.1 53.9 446 54 447.9 54.1 448.3 54.1 448.7 54.2 449 54.2 450.6 54.3 452.3 54.4 453.8 54.5 454.1 54.5 454.4 54.6 454.7 54.6 456.4 54.8 458.2 55.1 459.8 55.4 459.9 55.4 460 55.4 460 55.4 485.4 59.8 507.8 73.3 523.4 92.7L523.5 92.8C533.7 105.4 541.1 120.5 544.7 136.9 544.8 137.2 544.8 137.4 544.9 137.7 544.9 138.2 545 138.7 545.1 139.2 545.4 140.4 545.6 141.7 545.8 142.9 545.9 143.5 546 144.2 546.1 144.7 546.2 145.8 546.3 147 546.5 148.1 546.6 149 546.7 150 546.7 150.8 546.8 151.7 546.9 152.6 546.9 153.5 547 155.3 547.1 157.1 547.1 159 547.1 160.8 547 162.7 546.9 164.5 546.8 165.4 546.8 166.4 546.7 167.2 546.6 168.1 546.6 169 546.5 169.9 546.4 171 546.2 172.2 546.1 173.3 546 173.9 545.9 174.6 545.8 175.1 545.6 176.4 545.3 177.6 545.1 178.8 545 179.3 544.9 179.8 544.9 180.3 544.8 180.5 544.8 180.8 544.7 181.1 534.5 228.5 492.4 264.2 442.1 264.2H313.3L331.2 181.1C331.2 181.1 334.7 159.6 340.6 137.5L340.9 136.3H341C340.9 137.1 347.6 53.9 442.1 53.9Z" class="b"/><path d="M740.2 0C765.4 0 783.5 7.9 800.3 23.1 802.5 25.1 802.5 28.1 800.6 30.1L785.4 45.8C783.7 47.8 781.2 47.8 779.3 45.8 768.9 36.6 755 31.1 741 31.1 709.1 31.1 685.6 57.8 685.6 89.1 685.6 120.1 709.4 146.6 741.2 146.6 756.2 146.6 768.9 140.8 779.3 132.4 781.3 130.6 784 130.9 785.4 132.4L800.8 148.3C802.8 150.1 802.3 153.3 800.5 155 783.6 171.4 762.2 179.2 740.1 179.2 690.4 179.2 650.5 139.7 650.5 89.9 650.5 40.2 690.6 0 740.2 0Z" class="c"/><path d="M820.8 7.2C820.8 4.7 823 2.5 825.5 2.5H848.6C851.3 2.5 853.3 4.7 853.3 7.2V73H934.2V7.2C934.2 4.7 936.3 2.5 938.9 2.5H961.8C964.2 2.5 966.5 4.7 966.5 7.2V171.8C966.5 174.3 964.2 176.5 961.8 176.5H938.9C936.2 176.5 934.2 174.3 934.2 171.8V103.2H853.3V171.8C853.3 174.3 851.2 176.5 848.6 176.5H825.6C823.1 176.5 820.9 174.3 820.9 171.8V7.2H820.8Z" class="c"/><path d="M999.5 7.2C999.5 4.7 1001.5 2.5 1004.2 2.5H1105.3C1108.1 2.5 1110 4.7 1110 7.2V27.6C1110 30.1 1108 32.3 1105.3 32.3H1031.8V73.1H1093.2C1095.7 73.1 1097.9 75.4 1097.9 77.8V98.5C1097.9 101.2 1095.7 103.2 1093.2 103.2H1031.8V146.7H1105.3C1108.1 146.7 1110 148.9 1110 151.3V171.7C1110 174.2 1108 176.4 1105.3 176.4H1004.2C1001.4 176.4 999.5 174.2 999.5 171.7V7.2Z" class="c"/><path d="M1133.1 7.2C1133.1 4.7 1135.2 2.5 1137.8 2.5H1239C1241.7 2.5 1243.7 4.7 1243.7 7.2V27.6C1243.7 30.1 1241.6 32.3 1239 32.3H1165.4V73.1H1226.8C1229.3 73.1 1231.5 75.4 1231.5 77.8V98.5C1231.5 101.2 1229.3 103.2 1226.8 103.2H1165.4V146.7H1239C1241.7 146.7 1243.7 148.9 1243.7 151.3V171.7C1243.7 174.2 1241.6 176.4 1239 176.4H1137.8C1135.1 176.4 1133.1 174.2 1133.1 171.7V7.2Z" class="c"/><path d="M1256.7 152.2L1265.6 136.8C1267.6 133.3 1271.7 133.3 1274 135 1275.2 135.8 1295.4 150.4 1311.6 150.4 1324.5 150.4 1334.2 142 1334.2 131.3 1334.2 118.6 1323.6 109.9 1302.7 101.4 1279.3 91.9 1255.9 77.1 1255.9 47.7 1255.9 25.6 1272.3 0 1311.8 0 1337.1 0 1356.5 12.9 1361.5 16.7 1364 18.1 1364.7 22.4 1363 24.9L1353.5 39.1C1351.5 42 1347.8 44 1344.7 42 1342.7 40.8 1323.8 28.4 1310.2 28.4 1296 28.4 1288.3 37.9 1288.3 45.8 1288.3 57.5 1297.5 65.4 1317.7 73.6 1341.8 83.3 1369.6 97.7 1369.6 129.8 1369.6 155.4 1347.5 179 1312.4 179 1281.1 179 1262.7 164.3 1257.8 159.5 1255.6 157.4 1254.4 156.1 1256.7 152.2Z" class="c"/><path d="M1389.1 7.2C1389.1 4.7 1391.1 2.5 1393.8 2.5H1494.9C1497.7 2.5 1499.6 4.7 1499.6 7.2V27.6C1499.6 30.1 1497.6 32.3 1494.9 32.3H1421.4V73.1H1482.8C1485.3 73.1 1487.5 75.4 1487.5 77.8V98.5C1487.5 101.2 1485.3 103.2 1482.8 103.2H1421.4V146.7H1494.9C1497.7 146.7 1499.6 148.9 1499.6 151.3V171.7C1499.6 174.2 1497.6 176.4 1494.9 176.4H1393.8C1391 176.4 1389.1 174.2 1389.1 171.7V7.2Z" class="c"/><path d="M663.3 228.3C663.3 225.8 665.3 223.6 668 223.6H769.1C771.9 223.6 773.8 225.8 773.8 228.3V248.7C773.8 251.2 771.8 253.4 769.1 253.4H695.6V300.2H757C759.5 300.2 761.7 302.4 761.7 304.9V325.3C761.7 327.8 759.5 330 757 330H695.6V392.9C695.6 395.4 693.4 397.6 690.9 397.6H668.1C665.3 397.6 663.4 395.4 663.4 392.9V228.3H663.3Z" class="c"/><path d="M790.9 228.3C790.9 225.8 793 223.6 795.6 223.6H818.5C821 223.6 823.2 225.8 823.2 228.3V367.7H886.5C889.2 367.7 891.2 369.9 891.2 372.4V392.8C891.2 395.3 889.1 397.5 886.5 397.5H795.5C792.8 397.5 790.9 395.3 790.9 392.8V228.3H790.9Z" class="c"/><path d="M979.1 221.1C1028.8 221.1 1068.5 261.2 1068.5 310.8 1068.5 360.5 1028.8 400.1 979.1 400.1 929.4 400.1 889.9 360.5 889.9 310.8 889.9 261.1 929.4 221.1 979.1 221.1ZM979.1 367.8C1010.4 367.8 1036.2 342.2 1036.2 310.9 1036.2 279.6 1010.4 253.4 979.1 253.4 947.8 253.4 922.2 279.5 922.2 310.9 922.2 342.3 947.8 367.8 979.1 367.8Z" class="c"/><path d="M1072 229.6C1071 226.1 1073 223.6 1076.5 223.6H1099.4C1101.4 223.6 1103.3 225.3 1103.9 227.1L1129.7 326.3H1130.7L1170.2 223.8C1170.7 222.4 1172 221.1 1174.5 221.1H1179C1181.5 221.1 1182.7 222.3 1183.2 223.8L1223 326.3H1224L1249.3 227.1C1249.7 225.3 1251.8 223.6 1253.8 223.6H1276.6C1280.1 223.6 1282 226.1 1281.1 229.6L1234.2 396.7C1233.7 398.7 1231.7 400.2 1229.7 400.2H1225.7C1223.5 400.2 1222 399 1221.5 397.4L1177 284.7H1175.8L1131.8 397.4C1131.1 398.9 1130.1 400.2 1127.6 400.2H1123.7C1121.6 400.2 1119.7 398.7 1119.1 396.7L1072 229.6Z" class="c"/><path d="M1384.9 257.7C1376 268.5 1361.8 279.6 1347.7 287.1 1352.6 289.2 1358.9 289.6 1366.3 289.6 1374.2 289.6 1386.4 289 1394.2 287.8 1393 290.5 1391.5 295.5 1391.3 298.3 1385.9 298.6 1373.6 299.1 1365.9 299.1 1356.1 299.1 1349.4 298.1 1343.7 294.8 1339.9 292.7 1337.4 290.4 1335.4 290.4 1332.1 290.4 1327.4 295.2 1322.7 300.6L1316 291.9C1322.5 285.9 1330.2 281.2 1335.6 281.2 1336.4 281.2 1337.3 281.5 1338.2 281.9 1348.8 276.7 1359.4 269.4 1366.7 262.5H1323.1V253.1H1352C1350.6 250.2 1348.8 246.7 1347 243.8L1356 240C1358.4 243.5 1361.3 248.3 1362.6 251.5L1359.2 253H1375.6L1377.6 252.5 1384.9 257.7ZM1334.3 238H1317.2V228.8H1334.3V221.8H1344.3V228.8H1364.9V221.8H1374.8V228.8H1391.9V238H1374.8V245.2H1364.9V238H1344.3V245.2H1334.3V238Z" class="c"/><path d="M1466.4 256.9V286.7H1495V296.7H1427.8V286.7H1455.7V256.9H1423.3V247H1455.7V222H1466.5V247H1499.5V256.9H1466.4Z" class="c"/><path d="M1329.6 362.1C1326.5 359.4 1319.7 355.3 1314.8 352.7L1320.3 345.4C1325.2 347.8 1332.1 351.5 1335.5 354.2L1329.6 362.1ZM1336.8 372.8C1333.5 381.6 1329.4 391 1325.6 399.1L1316.7 393.3C1320.2 387 1325.4 376.6 1329.1 367.1L1336.8 372.8ZM1332.9 340.8C1330 338.1 1323.7 333.9 1319.1 331.3L1325.1 324.3C1329.5 326.6 1336 330.4 1339.2 332.9L1332.9 340.8ZM1375.3 386.1C1379.6 389.9 1386 392.2 1394.4 393.2 1392.4 395.1 1389.9 398.8 1388.7 401.4 1377.6 399.3 1370.3 394.7 1365.6 387.2 1361.8 394.1 1354.4 398.9 1339.7 401.8 1338.9 399.4 1336.6 395.8 1334.8 394 1345.1 392.2 1350.9 389.7 1354.5 386.2H1337.7V378.1H1358.7C1359.1 376.8 1359.3 375.4 1359.4 373.9 1347.4 375 1344.8 375.4 1342.8 376.1 1342.5 374.6 1341.3 370.5 1340.4 368.4 1342.8 368 1345.3 366.9 1348.7 365 1349.7 364.5 1351.2 363.6 1353.1 362.6 1347.9 362.9 1346.4 363 1345.2 363.5 1344.7 361.8 1343.4 357.9 1342.7 355.8 1344.1 355.4 1345.6 354.7 1347.3 353.6 1349.1 352.6 1354.8 349 1358.6 344.6L1362.8 347.1C1362 344.3 1360.3 340.4 1358.5 337.2L1365.2 334.9C1357.5 335.8 1349.7 336.4 1342.4 336.7 1342.1 334.4 1341 331.1 1340 328.9 1355.1 327.9 1372.5 325.8 1383.3 323L1388.6 330.9C1382.3 332.5 1374.6 333.7 1366.6 334.8 1368.6 337.7 1370.4 341.7 1371.1 344.3L1363.2 347.4 1366.1 349C1363.5 351.1 1360.6 353.2 1357.8 355.1L1364.3 355C1367.3 352.8 1370.3 350.4 1373 348L1379.1 353.5C1373.3 358.2 1366.6 362.7 1359.9 366.5L1377.3 365.2C1376 363.6 1374.6 361.9 1373.3 360.5L1380.2 356.9C1384.7 361.3 1389.6 367.4 1391.7 371.8L1384.1 375.9C1383.6 374.8 1382.8 373.4 1382.1 372L1369.5 373.1C1369.2 374.8 1369 376.5 1368.7 378.1H1392.7V386.2H1375.3V386.1ZM1346.6 349.2C1346 346.6 1344.1 342.3 1342.2 339.3L1350.2 336.4C1352.2 339.3 1354.2 343.2 1355 346L1346.6 349.2ZM1374.5 346.5C1376.2 343 1378.5 337.6 1379.7 333.8L1388.1 336.2C1386 340.8 1383.7 345.5 1381.9 348.8L1374.5 346.5Z" class="c"/><path d="M1468.4 341.5C1467.9 342.4 1467.2 343.3 1466.6 344.2 1474.5 352.8 1487.8 360.8 1501 364.8 1498.4 367.1 1495.1 371.4 1493.4 374.4 1491 373.4 1488.4 372.2 1485.9 371V401.4H1475.1V398.4H1447.4V401.5H1437.1V370.6C1433.8 372.3 1430.7 374 1427.3 375.4 1425.9 372.4 1423.4 368.2 1421 365.6 1436.9 360.5 1452.5 348.5 1460 335.8L1468.4 341.5ZM1455.4 328.2C1449.4 336 1440.2 344.2 1432.6 349.2 1430.8 347.2 1426.8 343.6 1424.5 341.8 1432.1 337.6 1440.5 330.9 1445.5 324.3L1455.4 328.2ZM1478.5 366.7C1471.9 362.5 1465.7 357.3 1460.7 351.6 1455.7 357.1 1449.7 362.4 1443.2 366.7H1478.5ZM1475 389.7V375.4H1447.3V389.7H1475ZM1488.7 348.8C1483.9 343.5 1473.5 334.9 1466.1 329L1474.3 323.5C1481.4 329.1 1492.2 337.3 1497.5 342.6L1488.7 348.8Z" class="c"/></g><defs><clipPath><rect width="1501" height="402" class="b"/></clipPath></defs></svg>
