<?xml version="1.0" encoding="utf-8"?>
<!-- Generator: Adobe Illustrator 25.0.1, SVG Export Plug-In . SVG Version: 6.00 Build 0)  -->
<svg version="1.1" id="Layer_1" xmlns="http://www.w3.org/2000/svg" xmlns:xlink="http://www.w3.org/1999/xlink" x="0px" y="0px"
	 viewBox="0 0 560 69" style="enable-background:new 0 0 560 69;" xml:space="preserve">
<style type="text/css">
	.st0{clip-path:url(#SVGID_2_);}
	.st1{opacity:0.5;fill:#FCBC08;enable-background:new    ;}
	.st2{fill:#2D2D29;}
	.st3{font-family:'NotoSansSC-Black-83pv-RKSJ-H';}
	.st4{font-size:21px;}
</style>
<g>
	<g>
		<defs>
			<rect id="SVGID_1_" x="10" y="0" width="55.4" height="69"/>
		</defs>
		<clipPath id="SVGID_2_">
			<use xlink:href="#SVGID_1_"  style="overflow:visible;"/>
		</clipPath>
		<g class="st0">
			<path class="st1" d="M23.9,65.5c7.7,0,13.9-6.2,13.9-13.8s-6.2-13.8-13.9-13.8S10,44.1,10,51.7C10,59.4,16.2,65.5,23.9,65.5z"/>
			<path class="st2" d="M37.7,51.7c-10.5,0-19.1-8.5-19.1-19v-31C18.7,0.8,19.4,0,20.4,0H55c1,0,1.7,0.8,1.7,1.7v31
				C56.8,43.2,48.2,51.7,37.7,51.7z M22.1,3.4v29.3c0,8.6,7,15.5,15.6,15.5s15.6-7,15.6-15.5V3.4H22.1z"/>
			<path class="st2" d="M53.3,34.5V11.2c0-3.3,2.7-6,6.1-6c3.3,0,6.1,2.7,6.1,6v14.7C65.4,35.4,53.3,38.7,53.3,34.5z M56.8,11.2
				v21.3c3-0.8,5.2-3.5,5.2-6.7V11.2C62,7.8,56.8,7.8,56.8,11.2z"/>
			<path class="st2" d="M10,25.9V11.2c0-3.3,2.7-6,6.1-6s6.1,2.7,6.1,6v23.3C22.1,38.7,10,35.4,10,25.9z M13.5,11.2v14.7
				c0,3.2,2.2,5.9,5.2,6.7V11.2C18.7,7.8,13.5,7.8,13.5,11.2z"/>
			<path class="st2" d="M49.8,69H25.6c-1,0-1.7-0.8-1.7-1.7V56.9c0-0.9,0.8-1.7,1.7-1.7h24.2c1,0,1.7,0.8,1.7,1.7v10.4
				C51.6,68.2,50.8,69,49.8,69z M27.3,65.5h20.8v-6.9H27.3V65.5z"/>
			<path class="st2" d="M41.2,58.6h-6.9c-1,0-1.7-0.8-1.7-1.7V50c0-0.9,0.8-1.7,1.7-1.7h6.9c1,0,1.7,0.8,1.7,1.7v6.9
				C42.9,57.9,42.1,58.6,41.2,58.6z M36,55.2h3.5v-3.5H36V55.2z"/>
			<path class="st2" d="M53.3,69H22.1c-2.3,0-2.3-3.5,0-3.5h31.2C55.6,65.5,55.6,69,53.3,69z"/>
			<path class="st2" d="M37.7,36.2c-6.7,0-12.1-5.5-12.1-12.1C25.6,17.4,31,12,37.7,12s12.1,5.4,12.1,12.1
				C49.8,30.7,44.5,36.2,37.7,36.2z M37.7,15.5c-8.8,0-12,11.7-4.3,16.1c5.7,3.4,13-0.8,13-7.5C46.4,19.4,42.5,15.5,37.7,15.5z"/>
			<path class="st2" d="M42.9,44.9c-0.8,0-0.8-0.2-5.2-3.1c-4.2,2.8-4.8,3.6-6,2.9c-1.2-0.7-0.9-0.8-0.9-11.5c0-1.3,1.5-2.2,2.6-1.5
				c2.6,1.5,6,1.5,8.6,0c0.5-0.3,1.2-0.3,1.7,0c1.2,0.7,0.9,0.7,0.9,11.5C44.6,44.1,43.9,44.9,42.9,44.9z M41.2,39.9v-4.2
				c-2.2,0.7-4.7,0.7-6.9,0v4.2C38.2,37.3,37.2,37.3,41.2,39.9z"/>
			<path class="st2" d="M39.9,28.7c-0.5,0-0.6-0.1-2.1-0.9c-1.6,0.8-2.2,1.3-3.2,0.6c-1-0.7-0.7-1.6-0.4-3.2
				c-1.3-1.2-1.9-1.7-1.5-2.8c0.4-1.2,1.3-1.2,2.9-1.4l0.7-1.3c0.6-1.2,2.5-1.2,3.1,0l0.7,1.3l1.5,0.2c1.4,0.2,2,1.9,1,2.9l-1.1,1.1
				l0.3,1.5C41.7,27.7,40.9,28.7,39.9,28.7z M37.7,24.1c0.1,0,0.1,0,0.1-0.1c-0.1-0.1-0.1-0.1-0.2,0C37.7,24.1,37.6,24.1,37.7,24.1z
				"/>
			<path class="st2" d="M32.5,8.6c0,2.3-3.5,2.3-3.5,0S32.5,6.3,32.5,8.6z"/>
			<path class="st2" d="M39.4,8.6c0,2.3-3.5,2.3-3.5,0S39.4,6.3,39.4,8.6z"/>
			<path class="st2" d="M46.4,8.6c0,2.3-3.5,2.3-3.5,0S46.4,6.3,46.4,8.6z"/>
		</g>
	</g>
</g>
<text transform="matrix(1 0 0 1 81.0001 41.0548)" class="st3 st4">品牌影响力</text>
</svg>
