<?xml version="1.0" encoding="utf-8"?>
<!-- Generator: Adobe Illustrator 25.0.1, SVG Export Plug-In . SVG Version: 6.00 Build 0)  -->
<svg version="1.1" id="Layer_1" xmlns="http://www.w3.org/2000/svg" xmlns:xlink="http://www.w3.org/1999/xlink" x="0px" y="0px"
	 viewBox="0 0 560 69" style="enable-background:new 0 0 560 69;" xml:space="preserve">
<style type="text/css">
	.st0{clip-path:url(#SVGID_2_);}
	.st1{opacity:0.5;fill:#FCBC08;enable-background:new    ;}
	.st2{fill:#2D2D29;}
	.st3{enable-background:new    ;}
</style>
<g>
	<g>
		<g>
			<defs>
				<rect id="SVGID_1_" x="10" y="0" width="55.4" height="69"/>
			</defs>
			<clipPath id="SVGID_2_">
				<use xlink:href="#SVGID_1_"  style="overflow:visible;"/>
			</clipPath>
			<g class="st0">
				<path class="st1" d="M23.9,65.5c7.7,0,13.9-6.2,13.9-13.8s-6.2-13.8-13.9-13.8S10,44.1,10,51.7C10,59.4,16.2,65.5,23.9,65.5z"/>
				<path class="st2" d="M37.7,51.7c-10.5,0-19.1-8.5-19.1-19v-31C18.7,0.8,19.4,0,20.4,0H55c1,0,1.7,0.8,1.7,1.7v31
					C56.8,43.2,48.2,51.7,37.7,51.7z M22.1,3.4v29.3c0,8.6,7,15.5,15.6,15.5s15.6-7,15.6-15.5V3.4H22.1z"/>
				<path class="st2" d="M53.3,34.5V11.2c0-3.3,2.7-6,6.1-6c3.3,0,6.1,2.7,6.1,6v14.7C65.4,35.4,53.3,38.7,53.3,34.5z M56.8,11.2
					v21.3c3-0.8,5.2-3.5,5.2-6.7V11.2C62,7.8,56.8,7.8,56.8,11.2z"/>
				<path class="st2" d="M10,25.9V11.2c0-3.3,2.7-6,6.1-6s6.1,2.7,6.1,6v23.3C22.1,38.7,10,35.4,10,25.9z M13.5,11.2v14.7
					c0,3.2,2.2,5.9,5.2,6.7V11.2C18.7,7.8,13.5,7.8,13.5,11.2z"/>
				<path class="st2" d="M49.8,69H25.6c-1,0-1.7-0.8-1.7-1.7V56.9c0-0.9,0.8-1.7,1.7-1.7h24.2c1,0,1.7,0.8,1.7,1.7v10.4
					C51.6,68.2,50.8,69,49.8,69z M27.3,65.5h20.8v-6.9H27.3V65.5z"/>
				<path class="st2" d="M41.2,58.6h-6.9c-1,0-1.7-0.8-1.7-1.7V50c0-0.9,0.8-1.7,1.7-1.7h6.9c1,0,1.7,0.8,1.7,1.7v6.9
					C42.9,57.9,42.1,58.6,41.2,58.6z M36,55.2h3.5v-3.5H36V55.2z"/>
				<path class="st2" d="M53.3,69H22.1c-2.3,0-2.3-3.5,0-3.5h31.2C55.6,65.5,55.6,69,53.3,69z"/>
				<path class="st2" d="M37.7,36.2c-6.7,0-12.1-5.5-12.1-12.1C25.6,17.4,31,12,37.7,12s12.1,5.4,12.1,12.1
					C49.8,30.7,44.5,36.2,37.7,36.2z M37.7,15.5c-8.8,0-12,11.7-4.3,16.1c5.7,3.4,13-0.8,13-7.5C46.4,19.4,42.5,15.5,37.7,15.5z"/>
				<path class="st2" d="M42.9,44.9c-0.8,0-0.8-0.2-5.2-3.1c-4.2,2.8-4.8,3.6-6,2.9c-1.2-0.7-0.9-0.8-0.9-11.5
					c0-1.3,1.5-2.2,2.6-1.5c2.6,1.5,6,1.5,8.6,0c0.5-0.3,1.2-0.3,1.7,0c1.2,0.7,0.9,0.7,0.9,11.5C44.6,44.1,43.9,44.9,42.9,44.9z
					 M41.2,39.9v-4.2c-2.2,0.7-4.7,0.7-6.9,0v4.2C38.2,37.3,37.2,37.3,41.2,39.9z"/>
				<path class="st2" d="M39.9,28.7c-0.5,0-0.6-0.1-2.1-0.9c-1.6,0.8-2.2,1.3-3.2,0.6c-1-0.7-0.7-1.6-0.4-3.2
					c-1.3-1.2-1.9-1.7-1.5-2.8c0.4-1.2,1.3-1.2,2.9-1.4l0.7-1.3c0.6-1.2,2.5-1.2,3.1,0l0.7,1.3l1.5,0.2c1.4,0.2,2,1.9,1,2.9
					l-1.1,1.1l0.3,1.5C41.7,27.7,40.9,28.7,39.9,28.7z M37.7,24.1c0.1,0,0.1,0,0.1-0.1c-0.1-0.1-0.1-0.1-0.2,0
					C37.7,24.1,37.6,24.1,37.7,24.1z"/>
				<path class="st2" d="M32.5,8.6c0,2.3-3.5,2.3-3.5,0S32.5,6.3,32.5,8.6z"/>
				<path class="st2" d="M39.4,8.6c0,2.3-3.5,2.3-3.5,0S39.4,6.3,39.4,8.6z"/>
				<path class="st2" d="M46.4,8.6c0,2.3-3.5,2.3-3.5,0S46.4,6.3,46.4,8.6z"/>
			</g>
		</g>
	</g>
</g>
<g class="st3">
	<path d="M82.3,33.4h8.3V43h-3V42h-2.4v1h-2.9V33.4z M98,31.9H85.1v-8H98V31.9z M85.2,36.3v2.8h2.4v-2.8H85.2z M94.9,26.8h-6.8V29
		h6.8V26.8z M100.7,33.4V43h-3.1V42h-2.6v1h-2.9v-9.7H100.7z M97.6,39.1v-2.8h-2.6v2.8H97.6z"/>
	<path d="M106.1,31.5c0,0.5,0,1.1,0,1.6h3.7v10h-2.6v-7.5H106c-0.2,2.6-0.5,5.4-1.2,7.5c-0.6-0.3-1.8-0.7-2.5-0.9
		c1.1-3,1.3-7.9,1.3-10.8v-7.7h2.6v4.8h0.7v-5.4h2.5v5.4h0.9v2.6h-4.2V31.5z M122.4,39.3H119V43h-2.9v-3.7h-5.9v-2.6h2.1
		c-0.5-0.4-1.2-0.9-1.6-1.2c1-0.6,1.7-1.2,2.3-1.9h-2.1v-8.8h3c0.1-0.6,0.2-1.2,0.3-1.7l3.6,0.3c-0.2,0.5-0.4,1-0.7,1.4h4.6v8.8
		h-5.3c-0.6,1.1-1.4,2.2-2.6,3.1h2.4v-2.5h2.9v2.5h3.4V39.3z M113.6,28.1h1.2V28v-0.8h-1.2V28.1z M114.3,31.2c0.1-0.3,0.2-0.7,0.3-1
		h-1v1H114.3z M118.8,30.3h-1.3c-0.1,0.3-0.1,0.6-0.2,1h1.6V30.3z M118.8,27.2h-1.2v0.9v0h1.2V27.2z"/>
	<path d="M135.9,33.1h-12.1v-2.3h4.6c-0.1-0.1-0.1-0.3-0.2-0.4l1.6-0.3h-5.2v-6.3h10.5v3.7c1.7-0.9,3.6-2.5,4.6-4.1l2.9,1.2
		c-1.5,2.1-3.5,3.9-5.6,5.2c-0.4-0.6-1.2-1.4-1.9-2v2.2h-3.9c0.1,0.2,0.3,0.5,0.4,0.7h4.2V33.1z M133.5,38.2
		c0.6,1.1,1.3,2.4,1.6,3.3l-2.3,1.1c-0.3-0.9-0.9-2.4-1.5-3.5v1.5c0,1.2-0.2,1.8-1,2.2c-0.8,0.4-1.7,0.4-2.8,0.4
		c-0.1-0.6-0.4-1.4-0.7-2.1c-0.4,0.6-0.7,1.1-1.1,1.5c-0.5-0.4-1.5-1.2-2-1.6c0.7-0.7,1.3-1.8,1.7-2.8h-0.4v-4.6h9.7v4.6H133.5z
		 M128.1,38.8c-0.3,0.6-0.6,1.3-1,1.9c0.4,0,0.8,0,0.9,0c0.2,0,0.3-0.1,0.3-0.3v-2.3h-2.2L128.1,38.8z M127.6,26.1h4.6v-0.5h-4.6
		V26.1z M127.6,28.3h4.6v-0.5h-4.6V28.3z M127.9,36.2h4v-0.7h-4V36.2z M133,38.2h-1.7v0.7L133,38.2z M143.4,36
		c-1.6,3-3.9,5.3-6.6,6.9c-0.5-0.8-1.3-1.8-2.1-2.4c2.3-1.2,4.6-3.1,5.8-5.5L143.4,36z M143,30.3c-1.6,2.2-3.8,4.1-5.9,5.5
		c-0.5-0.7-1.3-1.6-2.1-2.1c1.8-1,4.1-2.8,5.2-4.5L143,30.3z"/>
	<path d="M151.3,37.6h-3.5v1.8h-2.6V24.8h6.1V37.6z M147.9,27.6v7.2h1v-7.2H147.9z M164,40.1c0,1.3-0.2,2-1,2.5
		c-0.8,0.5-1.8,0.5-3.2,0.5c-0.1-0.8-0.5-2-0.9-2.7c0.7,0.1,1.5,0,1.7,0c0.3,0,0.4-0.1,0.4-0.4v-11h-6v13.9h-2.9V26.5h3.1
		c0.4-1.1,0.7-2.4,0.9-3.4l3.6,0.6c-0.4,1-0.8,2-1.2,2.8h5.5V40.1z M157.7,37.9V39h-1.9v-8.7h4.5v7.6H157.7z M157.7,32.4v3.5h0.7
		v-3.5H157.7z"/>
	<path d="M184.4,27.4c0,0,0,1-0.1,1.4c-0.4,8.3-0.8,11.5-1.7,12.6c-0.7,0.9-1.4,1.2-2.4,1.3c-0.8,0.1-2.1,0.1-3.4,0.1
		c0-0.9-0.5-2.3-1.1-3.2c1.3,0.1,2.5,0.1,3,0.1c0.4,0,0.7-0.1,1-0.4c0.6-0.6,1-3.3,1.3-8.9h-5.2c-0.3,4.4-1.8,9.5-7.6,12.7
		c-0.5-0.8-1.7-2-2.4-2.5c5-2.5,6.4-6.7,6.8-10.2h-6.1v-3.1h6.2v-4.2h3.3v4.2H184.4z"/>
</g>
</svg>
