<?xml version="1.0" encoding="utf-8"?>
<!-- Generator: Adobe Illustrator 25.0.1, SVG Export Plug-In . SVG Version: 6.00 Build 0)  -->
<svg version="1.1" id="Layer_1" xmlns="http://www.w3.org/2000/svg" xmlns:xlink="http://www.w3.org/1999/xlink" x="0px" y="0px"
	 viewBox="0 0 560 69" style="enable-background:new 0 0 560 69;" xml:space="preserve">
<style type="text/css">
	.st0{clip-path:url(#SVGID_2_);}
	.st1{opacity:0.5;fill:#FCBC08;enable-background:new    ;}
	.st2{fill:#2D2D29;}
	.st3{font-family:'NotoSansSC-Black-83pv-RKSJ-H';}
	.st4{font-size:21px;}
</style>
<g>
	<g>
		<defs>
			<rect id="SVGID_1_" y="0" width="67" height="69"/>
		</defs>
		<clipPath id="SVGID_2_">
			<use xlink:href="#SVGID_1_"  style="overflow:visible;"/>
		</clipPath>
		<g class="st0">
			<path class="st1" d="M33.5,29.8c8.2,0,14.9-6.7,14.9-14.9S41.7,0,33.5,0S18.6,6.7,18.6,14.9S25.3,29.8,33.5,29.8z"/>
			<path class="st2" d="M33.5,55.9C22.1,55.9,13,46.6,13,35.4c0-11.3,9.2-20.5,20.5-20.5S54,24.1,54,35.4
				C54,46.6,44.9,55.9,33.5,55.9z M33.5,18.6c-17,0-23.2,22.7-8.4,31.3c11.1,6.4,25.1-1.6,25.1-14.5C50.3,26.2,42.7,18.6,33.5,18.6z
				"/>
			<path class="st2" d="M33.5,39.2c-4.1,0-7.4-3.3-7.4-7.5c0-4.1,3.3-7.5,7.4-7.5s7.4,3.3,7.4,7.5C41,35.8,37.6,39.2,33.5,39.2z
				 M33.5,28c-2,0-3.7,1.7-3.7,3.7c0,2.1,1.7,3.7,3.7,3.7s3.7-1.7,3.7-3.7S35.6,28,33.5,28z"/>
			<path class="st2" d="M23.3,53.2c-1.2-0.7-0.9-1.4-0.9-6.6c0-6.2,5-11.2,11.2-11.2s11.2,5,11.2,11.2c0,5.3,0.3,5.9-0.9,6.6
				C37.4,56.9,29.6,56.9,23.3,53.2z M26.1,50.5c4.6,2.3,10.3,2.3,14.9,0v-3.8c0-4.1-3.3-7.5-7.4-7.5s-7.4,3.3-7.4,7.5L26.1,50.5
				L26.1,50.5z"/>
			<path class="st2" d="M37.2,18.6c-1.6,0-2.5-2-1.3-3.2c8.1-8.1,7.7-8,8.8-8H54c2.5,0,2.5,3.7,0,3.7h-8.5
				C37.9,18.7,38.3,18.6,37.2,18.6z"/>
			<path class="st2" d="M59.6,16.8c-4.1,0-7.4-3.3-7.4-7.5c0-4.1,3.3-7.5,7.4-7.5S67,5.1,67,9.3C67,13.4,63.7,16.8,59.6,16.8z
				 M59.6,5.6c-2,0-3.7,1.7-3.7,3.7c0,2.1,1.7,3.7,3.7,3.7s3.7-1.7,3.7-3.7S61.6,5.6,59.6,5.6z"/>
			<path class="st2" d="M22.3,63.4H13c-2.5,0-2.5-3.7,0-3.7h8.5l6.9-6.9c1.8-1.8,4.4,0.9,2.6,2.6C23,63.6,23.4,63.4,22.3,63.4z"/>
			<path class="st2" d="M7.4,69C3.3,69,0,65.7,0,61.5S3.3,54,7.4,54s7.4,3.3,7.4,7.5S11.6,69,7.4,69z M7.4,57.8
				c-2,0-3.7,1.7-3.7,3.7c0,2.1,1.7,3.7,3.7,3.7s3.7-1.7,3.7-3.7C11.2,59.5,9.5,57.8,7.4,57.8z"/>
			<path class="st2" d="M7.4,28C3.3,28,0,24.6,0,20.5S3.3,13,7.4,13s7.4,3.3,7.4,7.5C14.9,24.6,11.6,28,7.4,28z M7.4,16.8
				c-2,0-3.7,1.7-3.7,3.7c0,2.1,1.7,3.7,3.7,3.7s3.7-1.7,3.7-3.7C11.2,18.5,9.5,16.8,7.4,16.8z"/>
			<path class="st2" d="M59.6,57.8c-4.1,0-7.4-3.3-7.4-7.5c0-4.1,3.3-7.5,7.4-7.5s7.4,3.3,7.4,7.5S63.7,57.8,59.6,57.8z M59.6,46.6
				c-2,0-3.7,1.7-3.7,3.7c0,2.1,1.7,3.7,3.7,3.7s3.7-1.7,3.7-3.7S61.6,46.6,59.6,46.6z"/>
			<path class="st2" d="M57.7,44.8v-5.6h-5.6c-2.5,0-2.5-3.7,0-3.7h7.4c1,0,1.9,0.8,1.9,1.9v7.5C61.4,47.2,57.7,47.2,57.7,44.8z"/>
			<path class="st2" d="M14.9,37.3H7.4c-1,0-1.9-0.8-1.9-1.9V28c0-2.5,3.7-2.5,3.7,0v5.6h5.6C17.4,33.6,17.4,37.3,14.9,37.3z"/>
		</g>
	</g>
</g>
<text transform="matrix(1 0 0 1 80.9999 41.0545)" class="st3 st4">品牌形象</text>
</svg>
