<?xml version="1.0" encoding="utf-8"?>
<!-- Generator: Adobe Illustrator 25.0.1, SVG Export Plug-In . SVG Version: 6.00 Build 0)  -->
<svg version="1.1" id="Layer_1" xmlns="http://www.w3.org/2000/svg" xmlns:xlink="http://www.w3.org/1999/xlink" x="0px" y="0px"
	 viewBox="0 0 560 69" style="enable-background:new 0 0 560 69;" xml:space="preserve">
<style type="text/css">
	.st0{clip-path:url(#SVGID_2_);}
	.st1{opacity:0.5;fill:#FCBC08;enable-background:new    ;}
	.st2{fill:#2D2D29;}
	.st3{enable-background:new    ;}
</style>
<g>
	<g>
		<defs>
			<rect id="SVGID_1_" x="10" y="0" width="55.4" height="69"/>
		</defs>
		<clipPath id="SVGID_2_">
			<use xlink:href="#SVGID_1_"  style="overflow:visible;"/>
		</clipPath>
		<g class="st0">
			<path class="st1" d="M23.9,65.5c7.7,0,13.9-6.2,13.9-13.8s-6.2-13.8-13.9-13.8S10,44.1,10,51.7C10,59.4,16.2,65.5,23.9,65.5z"/>
			<path class="st2" d="M37.7,51.7c-10.5,0-19.1-8.5-19.1-19v-31C18.7,0.8,19.4,0,20.4,0H55c1,0,1.7,0.8,1.7,1.7v31
				C56.8,43.2,48.2,51.7,37.7,51.7z M22.1,3.4v29.3c0,8.6,7,15.5,15.6,15.5s15.6-7,15.6-15.5V3.4H22.1z"/>
			<path class="st2" d="M53.3,34.5V11.2c0-3.3,2.7-6,6.1-6c3.3,0,6.1,2.7,6.1,6v14.7C65.4,35.4,53.3,38.7,53.3,34.5z M56.8,11.2
				v21.3c3-0.8,5.2-3.5,5.2-6.7V11.2C62,7.8,56.8,7.8,56.8,11.2z"/>
			<path class="st2" d="M10,25.9V11.2c0-3.3,2.7-6,6.1-6s6.1,2.7,6.1,6v23.3C22.1,38.7,10,35.4,10,25.9z M13.5,11.2v14.7
				c0,3.2,2.2,5.9,5.2,6.7V11.2C18.7,7.8,13.5,7.8,13.5,11.2z"/>
			<path class="st2" d="M49.8,69H25.6c-1,0-1.7-0.8-1.7-1.7V56.9c0-0.9,0.8-1.7,1.7-1.7h24.2c1,0,1.7,0.8,1.7,1.7v10.4
				C51.6,68.2,50.8,69,49.8,69z M27.3,65.5h20.8v-6.9H27.3V65.5z"/>
			<path class="st2" d="M41.2,58.6h-6.9c-1,0-1.7-0.8-1.7-1.7V50c0-0.9,0.8-1.7,1.7-1.7h6.9c1,0,1.7,0.8,1.7,1.7v6.9
				C42.9,57.9,42.1,58.6,41.2,58.6z M36,55.2h3.5v-3.5H36V55.2z"/>
			<path class="st2" d="M53.3,69H22.1c-2.3,0-2.3-3.5,0-3.5h31.2C55.6,65.5,55.6,69,53.3,69z"/>
			<path class="st2" d="M37.7,36.2c-6.7,0-12.1-5.5-12.1-12.1C25.6,17.4,31,12,37.7,12s12.1,5.4,12.1,12.1
				C49.8,30.7,44.5,36.2,37.7,36.2z M37.7,15.5c-8.8,0-12,11.7-4.3,16.1c5.7,3.4,13-0.8,13-7.5C46.4,19.4,42.5,15.5,37.7,15.5z"/>
			<path class="st2" d="M42.9,44.9c-0.8,0-0.8-0.2-5.2-3.1c-4.2,2.8-4.8,3.6-6,2.9c-1.2-0.7-0.9-0.8-0.9-11.5c0-1.3,1.5-2.2,2.6-1.5
				c2.6,1.5,6,1.5,8.6,0c0.5-0.3,1.2-0.3,1.7,0c1.2,0.7,0.9,0.7,0.9,11.5C44.6,44.1,43.9,44.9,42.9,44.9z M41.2,39.9v-4.2
				c-2.2,0.7-4.7,0.7-6.9,0v4.2C38.2,37.3,37.2,37.3,41.2,39.9z"/>
			<path class="st2" d="M39.9,28.7c-0.5,0-0.6-0.1-2.1-0.9c-1.6,0.8-2.2,1.3-3.2,0.6c-1-0.7-0.7-1.6-0.4-3.2
				c-1.3-1.2-1.9-1.7-1.5-2.8c0.4-1.2,1.3-1.2,2.9-1.4l0.7-1.3c0.6-1.2,2.5-1.2,3.1,0l0.7,1.3l1.5,0.2c1.4,0.2,2,1.9,1,2.9l-1.1,1.1
				l0.3,1.5C41.7,27.7,40.9,28.7,39.9,28.7z M37.7,24.1c0.1,0,0.1,0,0.1-0.1c-0.1-0.1-0.1-0.1-0.2,0C37.7,24.1,37.6,24.1,37.7,24.1z
				"/>
			<path class="st2" d="M32.5,8.6c0,2.3-3.5,2.3-3.5,0S32.5,6.3,32.5,8.6z"/>
			<path class="st2" d="M39.4,8.6c0,2.3-3.5,2.3-3.5,0S39.4,6.3,39.4,8.6z"/>
			<path class="st2" d="M46.4,8.6c0,2.3-3.5,2.3-3.5,0S46.4,6.3,46.4,8.6z"/>
		</g>
	</g>
</g>
<g class="st3">
	<path d="M112.4,44.6c0,4.2-3.3,6.6-9.7,6.6H90.2V26.9H102c6.1,0,9.2,2.5,9.2,6.3c0,2.4-1.2,4.3-3.2,5.3
		C110.7,39.4,112.4,41.5,112.4,44.6z M95.7,31.2v5.7h5.6c2.7,0,4.2-1,4.2-2.9c0-1.9-1.5-2.8-4.2-2.8H95.7z M106.8,44
		c0-2-1.6-3-4.5-3h-6.6v6h6.6C105.2,47,106.8,46.1,106.8,44z"/>
	<path d="M127.9,32.3v5c-0.5,0-0.8-0.1-1.2-0.1c-3,0-5,1.6-5,5.2v8.8h-5.4V32.5h5.2V35C122.8,33.2,125,32.3,127.9,32.3z"/>
	<path d="M147.5,40.6v10.6h-5.1v-2.3c-1,1.7-2.9,2.6-5.7,2.6c-4.4,0-7-2.4-7-5.6c0-3.3,2.3-5.6,8-5.6h4.3c0-2.3-1.4-3.7-4.3-3.7
		c-2,0-4,0.7-5.4,1.7l-1.9-3.8c2-1.5,5.1-2.3,8-2.3C144.2,32.3,147.5,34.9,147.5,40.6z M142.1,45.3v-1.9h-3.7
		c-2.5,0-3.3,0.9-3.3,2.2c0,1.4,1.1,2.3,3.1,2.3C139.9,47.8,141.4,47,142.1,45.3z"/>
	<path d="M171.4,40.5v10.7H166v-9.8c0-3-1.4-4.4-3.8-4.4c-2.6,0-4.5,1.6-4.5,5v9.2h-5.4V32.5h5.2v2.2c1.5-1.6,3.6-2.5,6.2-2.5
		C168.1,32.3,171.4,34.8,171.4,40.5z"/>
	<path d="M195.5,25.5v25.7h-5.2V49c-1.4,1.6-3.3,2.4-5.8,2.4c-5.3,0-9.3-3.7-9.3-9.6s4.1-9.6,9.3-9.6c2.3,0,4.2,0.7,5.6,2.3v-9
		H195.5z M190.2,41.9c0-3.2-2.1-5.2-4.7-5.2c-2.7,0-4.8,1.9-4.8,5.2c0,3.2,2.1,5.2,4.8,5.2C188.1,47,190.2,45.1,190.2,41.9z"/>
	<path d="M209.7,26.9c0-1.7,1.4-3,3.4-3c2,0,3.4,1.2,3.4,2.9c0,1.8-1.4,3.1-3.4,3.1C211,29.9,209.7,28.6,209.7,26.9z M210.3,32.5
		h5.4v18.6h-5.4V32.5z"/>
	<path d="M239.8,40.5v10.7h-5.4v-9.8c0-3-1.4-4.4-3.8-4.4c-2.6,0-4.5,1.6-4.5,5v9.2h-5.4V32.5h5.2v2.2c1.5-1.6,3.6-2.5,6.2-2.5
		C236.5,32.3,239.8,34.8,239.8,40.5z"/>
	<path d="M250.6,32.2V33h4.8v4.2h-4.6v14.1h-5.4V37.1h-2.9V33h2.9v-0.8c0-4.2,2.6-6.9,7.2-6.9c1.5,0,3.1,0.3,4.1,1l-1.4,3.9
		c-0.6-0.4-1.4-0.7-2.2-0.7C251.5,29.5,250.6,30.3,250.6,32.2z M263.5,25.5v25.7h-5.4V25.5H263.5z"/>
	<path d="M287.3,32.5v18.6h-5.1V49c-1.4,1.6-3.5,2.5-5.8,2.5c-4.7,0-8-2.6-8-8.4V32.5h5.4v9.7c0,3.1,1.4,4.5,3.8,4.5
		c2.5,0,4.3-1.6,4.3-5v-9.2H287.3z"/>
	<path d="M310.5,43.4h-14.1c0.5,2.3,2.5,3.7,5.3,3.7c2,0,3.4-0.6,4.7-1.8l2.9,3.1c-1.7,2-4.3,3-7.7,3c-6.4,0-10.6-4.1-10.6-9.6
		c0-5.6,4.3-9.6,9.9-9.6c5.5,0,9.7,3.7,9.7,9.7C310.6,42.4,310.5,42.9,310.5,43.4z M296.3,40.2h9.2c-0.4-2.4-2.1-3.9-4.6-3.9
		C298.5,36.4,296.7,37.9,296.3,40.2z"/>
	<path d="M333.3,40.5v10.7h-5.4v-9.8c0-3-1.4-4.4-3.8-4.4c-2.6,0-4.5,1.6-4.5,5v9.2h-5.4V32.5h5.2v2.2c1.5-1.6,3.6-2.5,6.2-2.5
		C329.9,32.3,333.3,34.8,333.3,40.5z"/>
	<path d="M337,41.9c0-5.6,4.3-9.6,10.4-9.6c3.9,0,7,1.7,8.4,4.7l-4.2,2.3c-1-1.8-2.5-2.6-4.2-2.6c-2.7,0-4.9,1.9-4.9,5.2
		c0,3.3,2.1,5.2,4.9,5.2c1.7,0,3.2-0.8,4.2-2.6l4.2,2.3c-1.4,3-4.4,4.7-8.4,4.7C341.3,51.5,337,47.5,337,41.9z"/>
	<path d="M376.8,43.4h-14.1c0.5,2.3,2.5,3.7,5.3,3.7c2,0,3.4-0.6,4.7-1.8l2.9,3.1c-1.7,2-4.3,3-7.7,3c-6.4,0-10.6-4.1-10.6-9.6
		c0-5.6,4.3-9.6,9.9-9.6c5.5,0,9.7,3.7,9.7,9.7C376.9,42.4,376.8,42.9,376.8,43.4z M362.6,40.2h9.2c-0.4-2.4-2.1-3.9-4.6-3.9
		C364.7,36.4,363,37.9,362.6,40.2z"/>
</g>
</svg>
