<svg xmlns="http://www.w3.org/2000/svg" width="120" height="124" viewBox="0 0 120 124" fill="none"><style>.a{fill:#2D2D29;}</style><g clip-path="url(#clip0)"><path d="M60 53.4C74.7 53.4 86.7 41.5 86.7 26.7 86.7 12 74.7 0 60 0 45.3 0 33.3 12 33.3 26.7 33.3 41.5 45.3 53.4 60 53.4Z" style="fill:#FCBC08;opacity:0.5"/><path d="M60 100.2C39.5 100.2 23.3 83.4 23.3 63.4 23.3 43.2 39.8 26.7 60 26.7 80.2 26.7 96.7 43.2 96.7 63.4 96.7 83.5 80.4 100.2 60 100.2ZM60 33.4C29.6 33.4 18.4 74.1 45 89.4 64.9 101 90 86.6 90 63.4 90 46.9 76.5 33.4 60 33.4Z" class="a"/><path d="M60 70.1C52.6 70.1 46.7 64.1 46.7 56.8 46.7 49.4 52.6 43.4 60 43.4 67.4 43.4 73.3 49.4 73.3 56.8 73.3 64.1 67.4 70.1 60 70.1ZM60 50.1C56.3 50.1 53.3 53.1 53.3 56.8 53.3 60.4 56.3 63.4 60 63.4 63.7 63.4 66.7 60.4 66.7 56.8 66.7 53.1 63.7 50.1 60 50.1Z" class="a"/><path d="M41.7 95.3C39.5 94 40 92.7 40 83.5 40 72.4 49 63.4 60 63.4 71.1 63.4 80 72.4 80 83.5 80 92.9 80.5 94 78.3 95.3 67 101.8 53 101.8 41.7 95.3ZM46.7 90.3C54.9 94.5 65.1 94.5 73.3 90.3V83.5C73.3 76.1 67.4 70.1 60 70.1 52.6 70.1 46.7 76.1 46.7 83.5V90.3Z" class="a"/><path d="M66.7 33.4C63.7 33.4 62.2 29.8 64.3 27.7 78.9 13.1 78.1 13.4 80 13.4H96.7C101.1 13.4 101.1 20 96.7 20H81.4C67.9 33.5 68.5 33.4 66.7 33.4Z" class="a"/><path d="M106.7 30C99.3 30 93.3 24.1 93.3 16.7 93.3 9.3 99.3 3.3 106.7 3.3 114 3.3 120 9.3 120 16.7 120 24.1 114 30 106.7 30ZM106.7 10C103 10 100 13 100 16.7 100 20.4 103 23.4 106.7 23.4 110.3 23.4 113.3 20.4 113.3 16.7 113.3 13 110.3 10 106.7 10Z" class="a"/><path d="M40 113.5H23.3C18.9 113.5 18.9 106.8 23.3 106.8H38.6L51 94.5C54.1 91.3 58.8 96.1 55.7 99.2 41.1 113.8 41.9 113.5 40 113.5Z" class="a"/><path d="M13.3 123.5C6 123.5 0 117.6 0 110.2 0 102.8 6 96.8 13.3 96.8 20.7 96.8 26.7 102.8 26.7 110.2 26.7 117.6 20.7 123.5 13.3 123.5ZM13.3 103.5C9.7 103.5 6.7 106.5 6.7 110.2 6.7 113.9 9.7 116.9 13.3 116.9 17 116.9 20 113.9 20 110.2 20 106.5 17 103.5 13.3 103.5Z" class="a"/><path d="M13.3 50.1C6 50.1 0 44.1 0 36.7 0 29.3 6 23.4 13.3 23.4 20.7 23.4 26.7 29.3 26.7 36.7 26.7 44.1 20.7 50.1 13.3 50.1ZM13.3 30C9.7 30 6.7 33.1 6.7 36.7 6.7 40.4 9.7 43.4 13.3 43.4 17 43.4 20 40.4 20 36.7 20 33.1 17 30 13.3 30Z" class="a"/><path d="M106.7 103.5C99.3 103.5 93.3 97.5 93.3 90.1 93.3 82.8 99.3 76.8 106.7 76.8 114 76.8 120 82.8 120 90.1 120 97.5 114 103.5 106.7 103.5ZM106.7 83.5C103 83.5 100 86.5 100 90.1 100 93.8 103 96.8 106.7 96.8 110.3 96.8 113.3 93.8 113.3 90.1 113.3 86.5 110.3 83.5 106.7 83.5Z" class="a"/><path d="M103.3 80.1V70.1H93.3C88.9 70.1 88.9 63.4 93.3 63.4H106.7C108.5 63.4 110 64.9 110 66.8V80.1C110 84.5 103.3 84.5 103.3 80.1Z" class="a"/><path d="M26.7 66.8H13.3C11.5 66.8 10 65.3 10 63.4V50.1C10 45.7 16.7 45.7 16.7 50.1V60.1H26.7C31.1 60.1 31.1 66.8 26.7 66.8Z" class="a"/></g><defs><clipPath><rect width="120" height="123.5" fill="white"/></clipPath></defs></svg>
