<svg width="1501" height="402" viewBox="0 0 1501 402" fill="none" xmlns="http://www.w3.org/2000/svg">
<g clip-path="url(#clip0)">
<path d="M597.59 152.821C594.552 71.85 526.723 4.42014 442.695 2.39355C383.24 2.39355 328.939 36.6612 302.801 89.2602H153.98C69.4003 90.8262 0.742109 160.283 0.00582824 244.202C-0.730452 329.134 68.3879 400.433 153.98 401.999C213.435 401.999 267.736 367.731 293.874 315.132H442.695C531.232 312.921 600.811 238.03 597.59 152.821ZM266.171 223.199C266.171 223.199 262.858 244.57 256.692 266.955L256.416 268.06H256.324C251.354 285.839 244.635 304.078 236.352 312.368C216.748 336.319 187.205 351.15 155.269 351.426C154.717 351.426 154.441 351.426 154.441 351.426C152.508 351.426 150.575 351.334 148.642 351.242C148.274 351.242 147.906 351.15 147.538 351.15C145.973 351.058 144.317 350.873 142.752 350.781C142.476 350.781 142.2 350.689 141.924 350.689C140.175 350.505 138.427 350.229 136.678 349.952C136.586 349.952 136.494 349.952 136.494 349.952C110.908 345.531 88.4515 331.897 72.6215 312.553L72.5295 312.46C62.2215 299.84 54.7667 284.733 51.1773 268.152C51.0853 267.876 51.0853 267.599 50.9933 267.323C50.9012 266.77 50.8092 266.218 50.7172 265.665C50.5331 264.467 50.257 263.27 50.0729 262.072C49.9809 261.427 49.8888 260.783 49.7968 260.138C49.6127 259.032 49.5207 257.927 49.3366 256.73C49.2446 255.808 49.1526 254.887 49.1526 253.966C49.0605 253.045 48.9685 252.216 48.9685 251.295C48.8765 249.452 48.7844 247.61 48.7844 245.768C48.7844 243.925 48.8765 242.083 48.9685 240.24C49.0605 239.319 49.0605 238.49 49.1526 237.569C49.2446 236.648 49.2446 235.727 49.3366 234.806C49.4287 233.7 49.6127 232.595 49.7968 231.489C49.8888 230.845 49.9809 230.2 50.0729 229.463C50.257 228.265 50.5331 227.068 50.7172 225.87C50.8092 225.317 50.9012 224.765 50.9933 224.212C51.0853 223.936 51.0853 223.659 51.1773 223.383C61.4853 175.85 103.821 140.109 154.349 140.109H284.118L266.171 223.199ZM442.05 53.8871C443.983 53.8871 445.916 53.9793 447.849 54.0714C448.217 54.0714 448.585 54.1635 448.953 54.1635C450.518 54.2556 452.174 54.4398 453.739 54.532C454.015 54.532 454.291 54.6241 454.567 54.6241C456.316 54.8083 458.064 55.0847 459.721 55.361C459.813 55.361 459.905 55.361 459.905 55.361C485.307 59.6905 507.579 73.2318 523.225 92.3922L523.317 92.4843C533.533 105.012 540.896 120.027 544.485 136.424C544.577 136.701 544.577 136.977 544.669 137.253C544.761 137.714 544.853 138.267 544.945 138.727C545.222 139.925 545.406 141.214 545.59 142.412C545.682 143.057 545.774 143.702 545.866 144.254C546.05 145.36 546.142 146.557 546.326 147.663C546.418 148.584 546.51 149.413 546.51 150.334C546.602 151.255 546.694 152.084 546.694 153.005C546.786 154.848 546.878 156.69 546.878 158.532C546.878 160.375 546.786 162.217 546.694 164.059C546.602 164.981 546.602 165.81 546.51 166.731C546.418 167.652 546.418 168.573 546.326 169.402C546.234 170.508 546.05 171.705 545.866 172.811C545.774 173.455 545.682 174.1 545.59 174.653C545.406 175.85 545.13 177.14 544.945 178.338C544.853 178.798 544.761 179.351 544.669 179.812C544.577 180.088 544.577 180.364 544.485 180.641C534.269 227.805 492.301 263.27 442.142 263.27H313.385L331.332 181.009C331.332 181.009 334.829 159.73 340.72 137.714L340.996 136.516H341.088" fill="black"/>
<path d="M550.467 136.332C550.559 136.885 550.651 137.345 550.743 137.898C550.743 137.345 550.651 136.885 550.467 136.332Z" fill="#1F2D42"/>
<path d="M546.691 153.28C546.783 155.123 546.875 156.965 546.875 158.807C546.875 156.965 546.783 155.123 546.691 153.28Z" fill="#1F2D42"/>
<path d="M545.596 142.598C545.688 143.242 545.78 143.887 545.872 144.44C545.78 143.887 545.688 143.242 545.596 142.598Z" fill="#1F2D42"/>
<path d="M546.332 147.938C546.424 148.859 546.516 149.688 546.516 150.609C546.424 149.688 546.424 148.767 546.332 147.938Z" fill="#1F2D42"/>
<path d="M331.326 181.009L340.714 137.714C334.823 159.73 331.326 181.009 331.326 181.009Z" fill="#1F2D42"/>
<path d="M454.477 54.7178C456.225 54.902 457.974 55.1784 459.631 55.4547C457.974 55.1784 456.225 54.902 454.477 54.7178Z" fill="#1F2D42"/>
<path d="M448.959 54.1641C450.524 54.2562 452.18 54.4404 453.745 54.5325C452.18 54.4404 450.616 54.2562 448.959 54.1641Z" fill="#1F2D42"/>
<path d="M545.591 174.929C545.407 176.218 545.131 177.416 544.947 178.613C545.223 177.416 545.407 176.218 545.591 174.929Z" fill="#1F2D42"/>
<path d="M546.325 169.68C546.233 170.785 546.049 171.983 545.865 173.088C546.049 171.891 546.141 170.785 546.325 169.68Z" fill="#1F2D42"/>
<path d="M544.48 181.008C544.573 180.731 544.573 180.455 544.665 180.179C544.573 180.455 544.573 180.731 544.48 181.008Z" fill="#1F2D42"/>
<path d="M442.055 53.8857C443.987 53.8857 445.92 53.9779 447.853 54.07C445.92 53.9779 444.079 53.8857 442.055 53.8857Z" fill="#1F2D42"/>
<path d="M546.696 164.242C546.604 165.163 546.604 165.992 546.512 166.914C546.604 166.085 546.696 165.163 546.696 164.242Z" fill="#1F2D42"/>
<path d="M266.172 223.014C266.172 223.014 262.859 244.569 256.692 267.046L256.416 268.151H256.324C251.354 286.114 244.636 304.445 236.353 312.736C216.749 336.871 187.206 351.794 155.27 352.07C154.718 352.07 154.441 352.07 154.441 352.07C152.509 352.07 150.576 351.978 148.643 351.886C148.275 351.886 147.907 351.794 147.539 351.794C145.974 351.701 144.318 351.517 142.753 351.333C142.477 351.333 142.201 351.241 141.925 351.241C140.176 351.057 138.427 350.78 136.679 350.504C136.587 350.504 136.495 350.504 136.495 350.504C110.909 346.082 88.4523 332.357 72.6222 312.828L72.5302 312.736C62.2223 299.932 54.7674 284.732 51.1781 268.151C51.086 267.875 51.086 267.598 50.994 267.322C50.902 266.769 50.8099 266.217 50.7179 265.664C50.5338 264.466 50.2577 263.269 50.0736 261.979C49.9816 261.334 49.8896 260.69 49.7975 259.953C49.6135 258.847 49.5214 257.742 49.3374 256.544C49.2453 255.623 49.1533 254.702 49.1533 253.781C49.0613 252.86 48.9692 251.938 48.9692 251.109C48.8772 249.267 48.7852 247.425 48.7852 245.582C48.7852 243.74 48.8772 241.898 48.9692 240.055C49.0613 239.134 49.0613 238.213 49.1533 237.384C49.2453 236.463 49.2453 235.542 49.3374 234.62C49.4294 233.515 49.6135 232.317 49.7975 231.212C49.8896 230.567 49.9816 229.922 50.0736 229.185C50.2577 227.988 50.5338 226.79 50.7179 225.501C50.8099 224.948 50.902 224.395 50.994 223.843C51.086 223.566 51.086 223.29 51.1781 223.014C61.486 175.113 103.822 139.095 154.349 139.095H284.119L266.172 223.014Z" fill="white"/>
<path d="M442.146 53.8857C442.146 53.8857 446.011 53.9779 447.944 54.07C448.312 54.07 448.68 54.1621 449.049 54.1621C450.613 54.2542 452.27 54.4384 453.834 54.5306C454.111 54.5306 454.387 54.6227 454.663 54.6227C456.411 54.8069 458.16 55.0833 459.817 55.3596C459.909 55.3596 460.001 55.3596 460.001 55.3596C485.402 59.7813 507.767 73.3225 523.413 92.6671L523.505 92.7592C533.721 105.379 541.084 120.487 544.673 136.883C544.765 137.16 544.765 137.436 544.857 137.713C544.949 138.173 545.041 138.726 545.133 139.186C545.409 140.384 545.593 141.674 545.777 142.871C545.869 143.516 545.962 144.161 546.054 144.713C546.238 145.819 546.33 147.016 546.514 148.122C546.606 149.043 546.698 149.964 546.698 150.793C546.79 151.714 546.882 152.636 546.882 153.465C546.974 155.307 547.066 157.149 547.066 158.992C547.066 160.834 546.974 162.676 546.882 164.519C546.79 165.44 546.79 166.361 546.698 167.19C546.606 168.111 546.606 169.032 546.514 169.861C546.422 170.967 546.238 172.164 546.054 173.27C545.962 173.915 545.869 174.559 545.777 175.112C545.593 176.402 545.317 177.599 545.133 178.797C545.041 179.257 544.949 179.81 544.857 180.271C544.765 180.547 544.765 180.823 544.673 181.1C534.457 228.54 492.397 264.19 442.146 264.19H313.297L331.244 181.1C331.244 181.1 334.741 159.636 340.631 137.528L340.907 136.331H340.999C340.907 137.068 347.626 53.8857 442.146 53.8857Z" fill="white"/>
<path d="M740.236 0C765.362 0 783.493 7.92209 800.335 23.1214C802.544 25.148 802.544 28.0958 800.611 30.1224L785.425 45.7823C783.677 47.8089 781.192 47.8089 779.259 45.7823C768.859 36.5706 754.962 31.1357 740.972 31.1357C709.128 31.1357 685.567 57.7576 685.567 89.0775C685.567 120.121 709.404 146.559 741.249 146.559C756.158 146.559 768.859 140.847 779.259 132.373C781.284 130.622 783.953 130.899 785.425 132.373L800.795 148.309C802.82 150.059 802.268 153.283 800.519 155.033C783.585 171.43 762.233 179.168 740.144 179.168C690.445 179.168 650.502 139.65 650.502 89.9065C650.502 40.1632 690.629 0 740.236 0Z" fill="black"/>
<path d="M820.768 7.18529C820.768 4.69812 822.976 2.4873 825.461 2.4873H848.562C851.323 2.4873 853.256 4.69812 853.256 7.18529V73.0492H934.247V7.18529C934.247 4.69812 936.272 2.4873 938.941 2.4873H961.765C964.25 2.4873 966.459 4.69812 966.459 7.18529V171.799C966.459 174.286 964.25 176.497 961.765 176.497H938.941C936.18 176.497 934.247 174.286 934.247 171.799V103.172H853.256V171.799C853.256 174.286 851.231 176.497 848.562 176.497H825.553C823.068 176.497 820.86 174.286 820.86 171.799V7.18529H820.768Z" fill="black"/>
<path d="M999.498 7.18529C999.498 4.69812 1001.52 2.4873 1004.19 2.4873H1105.34C1108.1 2.4873 1110.03 4.69812 1110.03 7.18529V27.6353C1110.03 30.1225 1108.01 32.3333 1105.34 32.3333H1031.8V73.1413H1093.19C1095.67 73.1413 1097.88 75.3521 1097.88 77.8393V98.4736C1097.88 101.237 1095.67 103.172 1093.19 103.172H1031.8V146.651H1105.34C1108.1 146.651 1110.03 148.862 1110.03 151.349V171.707C1110.03 174.194 1108.01 176.405 1105.34 176.405H1004.19C1001.43 176.405 999.498 174.194 999.498 171.707V7.18529Z" fill="black"/>
<path d="M1133.13 7.18529C1133.13 4.69812 1135.15 2.4873 1137.82 2.4873H1238.97C1241.73 2.4873 1243.66 4.69812 1243.66 7.18529V27.6353C1243.66 30.1225 1241.64 32.3333 1238.97 32.3333H1165.43V73.1413H1226.82C1229.31 73.1413 1231.51 75.3521 1231.51 77.8393V98.4736C1231.51 101.237 1229.31 103.172 1226.82 103.172H1165.43V146.651H1238.97C1241.73 146.651 1243.66 148.862 1243.66 151.349V171.707C1243.66 174.194 1241.64 176.405 1238.97 176.405H1137.82C1135.06 176.405 1133.13 174.194 1133.13 171.707V7.18529Z" fill="black"/>
<path d="M1256.65 152.178L1265.58 136.794C1267.6 133.294 1271.74 133.294 1274.04 135.044C1275.24 135.781 1295.4 150.428 1311.6 150.428C1324.48 150.428 1334.24 141.953 1334.24 131.267C1334.24 118.555 1323.56 109.896 1302.67 101.421C1279.29 91.9331 1255.91 77.1022 1255.91 47.7168C1255.91 25.6086 1272.3 0 1311.78 0C1337.09 0 1356.51 12.8964 1361.48 16.6732C1363.96 18.1471 1364.7 22.3845 1362.95 24.8717L1353.47 39.0577C1351.45 42.0055 1347.76 44.0321 1344.73 42.0055C1342.7 40.808 1323.84 28.3721 1310.21 28.3721C1296.04 28.3721 1288.31 37.8602 1288.31 45.7823C1288.31 57.4812 1297.51 65.4033 1317.67 73.6017C1341.78 83.2741 1369.58 97.7365 1369.58 129.793C1369.58 155.402 1347.49 178.984 1312.42 178.984C1281.13 178.984 1262.72 164.337 1257.75 159.547C1255.64 157.428 1254.44 156.139 1256.65 152.178Z" fill="black"/>
<path d="M1389.08 7.18529C1389.08 4.69812 1391.11 2.4873 1393.78 2.4873H1494.92C1497.69 2.4873 1499.62 4.69812 1499.62 7.18529V27.6353C1499.62 30.1225 1497.59 32.3333 1494.92 32.3333H1421.39V73.1413H1482.78C1485.26 73.1413 1487.47 75.3521 1487.47 77.8393V98.4736C1487.47 101.237 1485.26 103.172 1482.78 103.172H1421.39V146.651H1494.92C1497.69 146.651 1499.62 148.862 1499.62 151.349V171.707C1499.62 174.194 1497.59 176.405 1494.92 176.405H1393.78C1391.02 176.405 1389.08 174.194 1389.08 171.707V7.18529Z" fill="black"/>
<path d="M663.301 228.267C663.301 225.78 665.326 223.569 667.995 223.569H769.141C771.902 223.569 773.835 225.78 773.835 228.267V248.717C773.835 251.205 771.81 253.415 769.141 253.415H695.605V300.211H756.992C759.477 300.211 761.686 302.422 761.686 304.909V325.267C761.686 327.754 759.477 329.965 756.992 329.965H695.605V392.881C695.605 395.368 693.396 397.579 690.911 397.579H668.087C665.326 397.579 663.393 395.368 663.393 392.881V228.267H663.301Z" fill="black"/>
<path d="M790.948 228.267C790.948 225.78 792.972 223.569 795.641 223.569H818.466C820.951 223.569 823.16 225.78 823.16 228.267V367.733H886.48C889.241 367.733 891.174 369.944 891.174 372.431V392.789C891.174 395.276 889.149 397.487 886.48 397.487H795.549C792.788 397.487 790.855 395.276 790.855 392.789V228.267H790.948Z" fill="black"/>
<path d="M979.065 221.082C1028.76 221.082 1068.52 261.153 1068.52 310.804C1068.52 360.456 1028.76 400.066 979.065 400.066C929.366 400.066 889.883 360.548 889.883 310.804C889.883 261.061 929.366 221.082 979.065 221.082ZM979.065 367.825C1010.36 367.825 1036.22 342.216 1036.22 310.896C1036.22 279.577 1010.36 253.415 979.065 253.415C947.773 253.415 922.187 279.484 922.187 310.896C922.187 342.308 947.773 367.825 979.065 367.825Z" fill="black"/>
<path d="M1072.02 229.557C1071.01 226.056 1073.03 223.569 1076.53 223.569H1099.35C1101.38 223.569 1103.31 225.319 1103.86 227.07L1129.73 326.28H1130.74L1170.22 223.846C1170.68 222.372 1171.97 221.082 1174.46 221.082H1178.97C1181.45 221.082 1182.74 222.28 1183.2 223.846L1222.96 326.28H1223.97L1249.28 227.07C1249.74 225.319 1251.77 223.569 1253.79 223.569H1276.61C1280.11 223.569 1282.04 226.056 1281.12 229.557L1234.19 396.658C1233.73 398.684 1231.7 400.158 1229.68 400.158H1225.72C1223.51 400.158 1222.04 398.961 1221.49 397.395L1177.03 284.735H1175.84L1131.84 397.395C1131.11 398.868 1130.09 400.158 1127.61 400.158H1123.65C1121.63 400.158 1119.69 398.684 1119.14 396.658L1072.02 229.557Z" fill="black"/>
<path d="M1384.85 257.653C1376.02 268.523 1361.85 279.577 1347.67 287.13C1352.55 289.249 1358.9 289.618 1366.26 289.618C1374.18 289.618 1386.42 288.973 1394.15 287.775C1392.95 290.539 1391.48 295.513 1391.3 298.277C1385.87 298.645 1373.63 299.106 1365.89 299.106C1356.14 299.106 1349.42 298.092 1343.71 294.776C1339.94 292.75 1337.36 290.355 1335.43 290.355C1332.12 290.355 1327.42 295.237 1322.73 300.58L1316.01 291.921C1322.45 285.933 1330.19 281.235 1335.62 281.235C1336.44 281.235 1337.27 281.511 1338.19 281.88C1348.78 276.721 1359.36 269.444 1366.72 262.535H1323.1V253.139H1352C1350.62 250.191 1348.78 246.691 1347.03 243.835L1355.95 239.966C1358.44 243.467 1361.29 248.349 1362.58 251.481L1359.18 253.047H1375.56L1377.58 252.494L1384.85 257.653ZM1334.33 238.032H1317.21V228.82H1334.33V221.819H1344.27V228.82H1364.88V221.819H1374.82V228.82H1391.94V238.032H1374.82V245.217H1364.88V238.032H1344.27V245.217H1334.33V238.032Z" fill="black"/>
<path d="M1466.38 256.916V286.67H1495.01V296.711H1427.82V286.67H1455.71V256.916H1423.31V246.968H1455.71V222.004H1466.48V246.968H1499.52V256.916H1466.38Z" fill="black"/>
<path d="M1329.63 362.114C1326.5 359.35 1319.69 355.297 1314.81 352.718L1320.33 345.44C1325.21 347.836 1332.11 351.52 1335.52 354.192L1329.63 362.114ZM1336.8 372.799C1333.49 381.55 1329.44 391.039 1325.58 399.053L1316.74 393.342C1320.24 386.985 1325.39 376.576 1329.07 367.088L1336.8 372.799ZM1332.94 340.835C1329.99 338.071 1323.74 333.926 1319.13 331.347L1325.12 324.346C1329.53 326.649 1335.98 330.425 1339.2 332.913L1332.94 340.835ZM1375.28 386.064C1379.6 389.933 1386.04 392.236 1394.42 393.157C1392.39 395.092 1389.91 398.776 1388.71 401.356C1377.58 399.329 1370.31 394.723 1365.61 387.17C1361.75 394.078 1354.38 398.869 1339.66 401.816C1338.92 399.421 1336.62 395.829 1334.78 393.986C1345.09 392.236 1350.89 389.749 1354.48 386.156H1337.73V378.142H1358.71C1359.08 376.76 1359.26 375.379 1359.45 373.905C1347.39 375.01 1344.81 375.379 1342.79 376.116C1342.51 374.642 1341.31 370.496 1340.39 368.378C1342.79 368.009 1345.27 366.904 1348.68 364.969C1349.69 364.509 1351.16 363.588 1353.1 362.574C1347.94 362.851 1346.38 363.035 1345.18 363.495C1344.72 361.837 1343.43 357.876 1342.7 355.758C1344.08 355.389 1345.64 354.744 1347.3 353.639C1349.14 352.626 1354.75 349.033 1358.62 344.611L1362.76 347.099C1362.02 344.335 1360.27 340.374 1358.53 337.242L1365.15 334.939C1357.51 335.768 1349.69 336.413 1342.42 336.689C1342.14 334.386 1340.95 331.07 1340.03 328.859C1355.12 327.938 1372.51 325.82 1383.28 322.964L1388.62 330.886C1382.27 332.544 1374.63 333.742 1366.62 334.755C1368.56 337.703 1370.4 341.664 1371.13 344.335L1363.22 347.375L1366.07 349.033C1363.49 351.06 1360.64 353.178 1357.79 355.113L1364.32 355.021C1367.27 352.81 1370.31 350.415 1372.97 348.02L1379.14 353.547C1373.25 358.245 1366.62 362.666 1359.91 366.535L1377.3 365.246C1376.01 363.588 1374.63 361.929 1373.34 360.548L1380.25 356.863C1384.66 361.285 1389.63 367.364 1391.66 371.786L1384.11 375.931C1383.56 374.826 1382.82 373.444 1382.09 371.97L1369.48 373.076C1369.2 374.826 1369.02 376.484 1368.65 378.142H1392.67V386.156H1375.28V386.064ZM1346.56 349.217C1346.01 346.638 1344.08 342.309 1342.23 339.269L1350.24 336.413C1352.17 339.269 1354.2 343.23 1355.03 345.993L1346.56 349.217ZM1374.45 346.454C1376.2 343.045 1378.5 337.611 1379.69 333.834L1388.07 336.229C1385.95 340.835 1383.65 345.533 1381.9 348.757L1374.45 346.454Z" fill="black"/>
<path d="M1468.41 341.48C1467.86 342.402 1467.21 343.323 1466.57 344.244C1474.48 352.811 1487.83 360.825 1500.99 364.786C1498.41 367.089 1495.1 371.419 1493.44 374.366C1490.96 373.353 1488.38 372.156 1485.89 370.958V401.449H1475.13V398.409H1447.42V401.541H1437.12V370.59C1433.8 372.34 1430.67 373.998 1427.27 375.38C1425.89 372.432 1423.4 368.194 1421.01 365.615C1436.93 360.457 1452.49 348.481 1460.03 335.769L1468.41 341.48ZM1455.43 328.216C1449.36 335.953 1440.25 344.244 1432.61 349.218C1430.77 347.192 1426.81 343.599 1424.51 341.849C1432.15 337.612 1440.52 330.887 1445.49 324.347L1455.43 328.216ZM1478.53 366.721C1471.91 362.483 1465.74 357.325 1460.68 351.613C1455.71 357.14 1449.72 362.391 1443.19 366.721H1478.53ZM1475.03 389.75V375.38H1447.33V389.75H1475.03ZM1488.66 348.85C1483.87 343.507 1473.47 334.94 1466.11 328.953L1474.3 323.518C1481.38 329.137 1492.15 337.335 1497.49 342.586L1488.66 348.85Z" fill="black"/>
</g>
<defs>
<clipPath id="clip0">
<rect width="1501" height="402" fill="white"/>
</clipPath>
</defs>
</svg>
