<?xml version="1.0" encoding="utf-8"?>
<!-- Generator: Adobe Illustrator 25.0.1, SVG Export Plug-In . SVG Version: 6.00 Build 0)  -->
<svg version="1.1" id="Layer_1" xmlns="http://www.w3.org/2000/svg" xmlns:xlink="http://www.w3.org/1999/xlink" x="0px" y="0px"
	 viewBox="0 0 560 69" style="enable-background:new 0 0 560 69;" xml:space="preserve">
<style type="text/css">
	.st0{clip-path:url(#SVGID_2_);}
	.st1{opacity:0.5;fill:#FCBC08;enable-background:new    ;}
	.st2{fill:#2D2D29;}
	.st3{enable-background:new    ;}
</style>
<g>
	<g>
		<g>
			<defs>
				<rect id="SVGID_1_" y="0" width="67" height="69"/>
			</defs>
			<clipPath id="SVGID_2_">
				<use xlink:href="#SVGID_1_"  style="overflow:visible;"/>
			</clipPath>
			<g class="st0">
				<path class="st1" d="M33.5,29.8c8.2,0,14.9-6.7,14.9-14.9S41.7,0,33.5,0S18.6,6.7,18.6,14.9S25.3,29.8,33.5,29.8z"/>
				<path class="st2" d="M33.5,55.9C22.1,55.9,13,46.6,13,35.4c0-11.3,9.2-20.5,20.5-20.5S54,24.1,54,35.4
					C54,46.6,44.9,55.9,33.5,55.9z M33.5,18.6c-17,0-23.2,22.7-8.4,31.3c11.1,6.4,25.1-1.6,25.1-14.5C50.3,26.2,42.7,18.6,33.5,18.6
					z"/>
				<path class="st2" d="M33.5,39.2c-4.1,0-7.4-3.3-7.4-7.5c0-4.1,3.3-7.5,7.4-7.5s7.4,3.3,7.4,7.5C41,35.8,37.6,39.2,33.5,39.2z
					 M33.5,28c-2,0-3.7,1.7-3.7,3.7c0,2.1,1.7,3.7,3.7,3.7s3.7-1.7,3.7-3.7S35.6,28,33.5,28z"/>
				<path class="st2" d="M23.3,53.2c-1.2-0.7-0.9-1.4-0.9-6.6c0-6.2,5-11.2,11.2-11.2s11.2,5,11.2,11.2c0,5.3,0.3,5.9-0.9,6.6
					C37.4,56.9,29.6,56.9,23.3,53.2z M26.1,50.5c4.6,2.3,10.3,2.3,14.9,0v-3.8c0-4.1-3.3-7.5-7.4-7.5s-7.4,3.3-7.4,7.5L26.1,50.5
					L26.1,50.5z"/>
				<path class="st2" d="M37.2,18.6c-1.6,0-2.5-2-1.3-3.2c8.1-8.1,7.7-8,8.8-8H54c2.5,0,2.5,3.7,0,3.7h-8.5
					C37.9,18.7,38.3,18.6,37.2,18.6z"/>
				<path class="st2" d="M59.6,16.8c-4.1,0-7.4-3.3-7.4-7.5c0-4.1,3.3-7.5,7.4-7.5S67,5.1,67,9.3C67,13.4,63.7,16.8,59.6,16.8z
					 M59.6,5.6c-2,0-3.7,1.7-3.7,3.7c0,2.1,1.7,3.7,3.7,3.7s3.7-1.7,3.7-3.7S61.6,5.6,59.6,5.6z"/>
				<path class="st2" d="M22.3,63.4H13c-2.5,0-2.5-3.7,0-3.7h8.5l6.9-6.9c1.8-1.8,4.4,0.9,2.6,2.6C23,63.6,23.4,63.4,22.3,63.4z"/>
				<path class="st2" d="M7.4,69C3.3,69,0,65.7,0,61.5S3.3,54,7.4,54s7.4,3.3,7.4,7.5S11.6,69,7.4,69z M7.4,57.8
					c-2,0-3.7,1.7-3.7,3.7c0,2.1,1.7,3.7,3.7,3.7s3.7-1.7,3.7-3.7C11.2,59.5,9.5,57.8,7.4,57.8z"/>
				<path class="st2" d="M7.4,28C3.3,28,0,24.6,0,20.5S3.3,13,7.4,13s7.4,3.3,7.4,7.5C14.9,24.6,11.6,28,7.4,28z M7.4,16.8
					c-2,0-3.7,1.7-3.7,3.7c0,2.1,1.7,3.7,3.7,3.7s3.7-1.7,3.7-3.7C11.2,18.5,9.5,16.8,7.4,16.8z"/>
				<path class="st2" d="M59.6,57.8c-4.1,0-7.4-3.3-7.4-7.5c0-4.1,3.3-7.5,7.4-7.5s7.4,3.3,7.4,7.5S63.7,57.8,59.6,57.8z M59.6,46.6
					c-2,0-3.7,1.7-3.7,3.7c0,2.1,1.7,3.7,3.7,3.7s3.7-1.7,3.7-3.7S61.6,46.6,59.6,46.6z"/>
				<path class="st2" d="M57.7,44.8v-5.6h-5.6c-2.5,0-2.5-3.7,0-3.7h7.4c1,0,1.9,0.8,1.9,1.9v7.5C61.4,47.2,57.7,47.2,57.7,44.8z"/>
				<path class="st2" d="M14.9,37.3H7.4c-1,0-1.9-0.8-1.9-1.9V28c0-2.5,3.7-2.5,3.7,0v5.6h5.6C17.4,33.6,17.4,37.3,14.9,37.3z"/>
			</g>
		</g>
	</g>
</g>
<g class="st3">
	<path d="M82.3,33.4h8.3V43h-3V42h-2.4v1h-2.9V33.4z M98,31.9H85.1v-8H98V31.9z M85.2,36.3v2.8h2.4v-2.8H85.2z M94.9,26.8h-6.8V29
		h6.8V26.8z M100.7,33.4V43h-3.1V42h-2.6v1h-2.9v-9.7H100.7z M97.6,39.1v-2.8h-2.6v2.8H97.6z"/>
	<path d="M106.1,31.5c0,0.5,0,1.1,0,1.6h3.7v10h-2.6v-7.5H106c-0.2,2.6-0.5,5.4-1.2,7.5c-0.6-0.3-1.8-0.7-2.5-0.9
		c1.1-3,1.3-7.9,1.3-10.8v-7.7h2.6v4.8h0.7v-5.4h2.5v5.4h0.9v2.6h-4.2V31.5z M122.4,39.3H119V43h-2.9v-3.7h-5.9v-2.6h2.1
		c-0.5-0.4-1.2-0.9-1.6-1.2c1-0.6,1.7-1.2,2.3-1.9h-2.1v-8.8h3c0.1-0.6,0.2-1.2,0.3-1.7l3.6,0.3c-0.2,0.5-0.4,1-0.7,1.4h4.6v8.8
		h-5.3c-0.6,1.1-1.4,2.2-2.6,3.1h2.4v-2.5h2.9v2.5h3.4V39.3z M113.6,28.1h1.2V28v-0.8h-1.2V28.1z M114.3,31.2c0.1-0.3,0.2-0.7,0.3-1
		h-1v1H114.3z M118.8,30.3h-1.3c-0.1,0.3-0.1,0.6-0.2,1h1.6V30.3z M118.8,27.2h-1.2v0.9v0h1.2V27.2z"/>
	<path d="M133.5,34V43h-3V34h-1.9c-0.1,3.4-0.7,6.8-3.2,9.3c-0.5-0.6-1.6-1.7-2.2-2.1c1.9-2,2.4-4.6,2.6-7.2h-2.2v-2.8h2.2v-4H124
		v-2.8h11.2v2.8h-1.6v4h1.9v2.4c1.8-1,3.9-2.7,4.9-4.4l2.8,1.2c-1.6,2.2-3.8,4.2-5.9,5.6c-0.4-0.6-1.2-1.3-1.9-1.9H133.5z
		 M130.5,31.1v-4h-1.9v4H130.5z M143.5,35.8c-1.8,3.2-4.4,5.5-7.5,7.2c-0.5-0.8-1.3-1.8-2.1-2.5c2.7-1.2,5.3-3.2,6.7-5.8L143.5,35.8
		z M142.9,24.6c-1.6,2.2-3.8,4-6,5.3c-0.5-0.7-1.4-1.6-2.1-2.2c1.9-0.9,4.2-2.6,5.3-4.3L142.9,24.6z"/>
	<path d="M163.1,34.6c-0.8,0.5-1.7,1-2.6,1.4c0.8,1.5,2.2,3,4,3.8c-0.7,0.6-1.6,1.8-2,2.6c-2-1.1-3.5-3.3-4.4-5.3l-0.5,0.2
		c0.6,2.1,0,4.1-1.5,4.9c-0.9,0.6-1.6,0.7-2.8,0.8c-0.5,0-1.2,0-1.8-0.1c0-0.7-0.3-1.7-0.7-2.4c-1.3,0.6-2.7,1.1-4.1,1.4
		c-0.4-0.6-1.2-1.6-1.7-2.2c3.2-0.7,6.8-2,8.9-3.5c-0.1-0.2-0.3-0.4-0.5-0.6c-1.9,1.3-4.4,2.5-6.7,3.1c-0.4-0.6-1.1-1.5-1.6-2
		c2.4-0.5,5-1.4,6.7-2.5c-0.2-0.1-0.4-0.3-0.6-0.4c-1.6,0.9-3.4,1.6-5.2,2.1c-0.3-0.5-1-1.6-1.4-2.1c1.2-0.3,2.4-0.6,3.5-1h-1v-3.1
		l-0.4,0.3c-0.4-0.7-1.4-1.7-2-2.2c2.7-1.4,4.6-3.3,5.6-5l3.1,0.7c-0.2,0.2-0.3,0.5-0.5,0.7h3.2l0.5-0.1l2.1,1.4
		c-0.4,0.6-0.8,1.2-1.3,1.8h4.7v5.5h-1.3L163.1,34.6z M152.3,30.8c0.5-0.4,0.9-0.7,1.3-1.2H150v1.2H152.3z M151.1,26.6
		c-0.3,0.3-0.6,0.6-0.9,0.9h3.6c0.2-0.3,0.4-0.6,0.6-0.9H151.1z M154.9,38.4c-1,0.7-2.2,1.3-3.4,1.9c0.5,0,1,0,1.4,0
		c0.5,0,1,0,1.4-0.3C154.7,39.8,155,39.2,154.9,38.4z M154.1,32.9c1.1,0.7,1.9,1.6,2.5,2.4c1.4-0.7,2.9-1.6,3.9-2.4H154.1z
		 M156.6,29.6c-0.3,0.4-0.6,0.8-1,1.2h3.5v-1.2H156.6z"/>
</g>
</svg>
