<?xml version="1.0" encoding="utf-8"?>
<!-- Generator: Adobe Illustrator 25.0.1, SVG Export Plug-In . SVG Version: 6.00 Build 0)  -->
<svg version="1.1" id="Layer_1" xmlns="http://www.w3.org/2000/svg" xmlns:xlink="http://www.w3.org/1999/xlink" x="0px" y="0px"
	 viewBox="0 0 560 69" style="enable-background:new 0 0 560 69;" xml:space="preserve">
<style type="text/css">
	.st0{clip-path:url(#SVGID_2_);}
	.st1{opacity:0.5;fill:#FCBC08;enable-background:new    ;}
	.st2{fill:#2D2D29;}
	.st3{enable-background:new    ;}
</style>
<g>
	<g>
		<g>
			<defs>
				<rect id="SVGID_1_" y="0" width="67.3" height="69"/>
			</defs>
			<clipPath id="SVGID_2_">
				<use xlink:href="#SVGID_1_"  style="overflow:visible;"/>
			</clipPath>
			<g class="st0">
				<path class="st1" d="M52.3,29.8c8.3,0,14.9-6.7,14.9-14.9S60.6,0,52.3,0S37.4,6.7,37.4,14.9C37.4,23.2,44.1,29.8,52.3,29.8z"/>
				<path class="st2" d="M65.4,69H1.9c-1,0-1.9-0.8-1.9-1.9C0,55,0,55.7,0.1,55.3L7.6,33c0.3-0.7,1-1.3,1.8-1.3H58
					c0.8,0,1.5,0.5,1.8,1.3c8.1,24.2,7.6,22.5,7.6,23v11.2C67.2,68.2,66.4,69,65.4,69z M3.7,65.3h59.8v-9l-6.9-20.8H10.7l-7,20.7
					C3.7,56.2,3.7,65.3,3.7,65.3z"/>
				<path class="st2" d="M65.4,35.4H1.9c-2.5,0-2.5-3.7,0-3.7h63.5C67.9,31.7,67.9,35.4,65.4,35.4z"/>
				<path class="st2" d="M0,37.3v-7.5c0-2.5,3.7-2.5,3.7,0v7.5C3.7,39.8,0,39.8,0,37.3z"/>
				<path class="st2" d="M63.5,37.3v-7.5c0-2.5,3.7-2.5,3.7,0v7.5C67.2,39.8,63.5,39.8,63.5,37.3z"/>
				<path class="st2" d="M48.6,59.7H18.7c-2.5,0-2.5-3.7,0-3.7h29.9C51.1,55.9,51.1,59.7,48.6,59.7z"/>
				<path class="st2" d="M11.2,59.7H9.3c-2.5,0-2.5-3.7,0-3.7h1.9C13.7,55.9,13.7,59.7,11.2,59.7z"/>
				<path class="st2" d="M57.9,59.7H56c-2.5,0-2.5-3.7,0-3.7h1.9C60.4,55.9,60.4,59.7,57.9,59.7z"/>
				<path class="st2" d="M39.2,52.2h-1.9c-2.5,0-2.5-3.7,0-3.7h1.9C41.7,48.5,41.7,52.2,39.2,52.2z"/>
				<path class="st2" d="M29.9,52.2H28c-2.5,0-2.5-3.7,0-3.7h1.9C32.4,48.5,32.4,52.2,29.9,52.2z"/>
				<path class="st2" d="M22.4,52.2h-1.9c-2.5,0-2.5-3.7,0-3.7h1.9C24.9,48.5,24.9,52.2,22.4,52.2z"/>
				<path class="st2" d="M14.9,52.2H13c-2.5,0-2.5-3.7,0-3.7h1.9C17.4,48.5,17.4,52.2,14.9,52.2z"/>
				<path class="st2" d="M54.2,52.2h-1.9c-2.5,0-2.5-3.7,0-3.7h1.9C56.7,48.5,56.7,52.2,54.2,52.2z"/>
				<path class="st2" d="M46.7,52.2h-1.9c-2.5,0-2.5-3.7,0-3.7h1.9C49.2,48.5,49.2,52.2,46.7,52.2z"/>
				<path class="st2" d="M39.2,44.8h-1.9c-2.5,0-2.5-3.7,0-3.7h1.9C41.7,41,41.7,44.8,39.2,44.8z"/>
				<path class="st2" d="M29.9,44.8H28c-2.5,0-2.5-3.7,0-3.7h1.9C32.4,41,32.4,44.8,29.9,44.8z"/>
				<path class="st2" d="M20.5,44.8h-1.9c-2.5,0-2.5-3.7,0-3.7h1.9C23,41,23,44.8,20.5,44.8z"/>
				<path class="st2" d="M48.6,44.8h-1.9c-2.5,0-2.5-3.7,0-3.7h1.9C51.1,41,51.1,44.8,48.6,44.8z"/>
				<path class="st2" d="M11.2,13.1H1.9c-1,0-1.9-0.8-1.9-1.9V8.6c0-3,2.3-6,5.1-6.6C9.3,1.1,13,4.3,13,8.4v2.8
					C13.1,12.2,12.3,13.1,11.2,13.1z M3.7,9.3h5.6V8.4c0-1.8-1.6-3.1-3.4-2.7C4.8,5.9,3.7,7.3,3.7,8.6V9.3z"/>
				<path class="st2" d="M56,35.4H11.2c-1,0-1.9-0.8-1.9-1.9c0-26.9,0.4-26-0.8-27.2C8,5.9,7.3,5.6,6.5,5.6C4,5.6,4,1.9,6.5,1.9
					h44.6c3.8,0,6.8,3.1,6.8,6.8v24.9C57.9,34.6,57.1,35.4,56,35.4z M13.1,31.7h41.1v-23c0-1.7-1.4-3.1-3.1-3.1H12.5
					C13.3,7.5,13.1,6.8,13.1,31.7z"/>
				<path class="st2" d="M35.5,11.2c0,2.5-3.7,2.5-3.7,0S35.5,8.7,35.5,11.2z"/>
				<path class="st2" d="M43,11.2c0,2.5-3.7,2.5-3.7,0S43,8.7,43,11.2z"/>
				<path class="st2" d="M50.4,11.2c0,2.5-3.7,2.5-3.7,0S50.4,8.7,50.4,11.2z"/>
				<path class="st2" d="M48.6,20.5H18.7c-2.5,0-2.5-3.7,0-3.7h29.9C51.1,16.8,51.1,20.5,48.6,20.5z"/>
				<path class="st2" d="M48.6,28H18.7c-2.5,0-2.5-3.7,0-3.7h29.9C51.1,24.2,51.1,28,48.6,28z"/>
			</g>
		</g>
	</g>
</g>
<g class="st3">
	<path d="M82.3,33.4h8.3V43h-3V42h-2.4v1h-2.9V33.4z M98,31.9H85.1v-8H98V31.9z M85.2,36.3v2.8h2.4v-2.8H85.2z M94.9,26.8h-6.8V29
		h6.8V26.8z M100.7,33.4V43h-3.1V42h-2.6v1h-2.9v-9.7H100.7z M97.6,39.1v-2.8h-2.6v2.8H97.6z"/>
	<path d="M106.1,31.5c0,0.5,0,1.1,0,1.6h3.7v10h-2.6v-7.5H106c-0.2,2.6-0.5,5.4-1.2,7.5c-0.6-0.3-1.8-0.7-2.5-0.9
		c1.1-3,1.3-7.9,1.3-10.8v-7.7h2.6v4.8h0.7v-5.4h2.5v5.4h0.9v2.6h-4.2V31.5z M122.4,39.3H119V43h-2.9v-3.7h-5.9v-2.6h2.1
		c-0.5-0.4-1.2-0.9-1.6-1.2c1-0.6,1.7-1.2,2.3-1.9h-2.1v-8.8h3c0.1-0.6,0.2-1.2,0.3-1.7l3.6,0.3c-0.2,0.5-0.4,1-0.7,1.4h4.6v8.8
		h-5.3c-0.6,1.1-1.4,2.2-2.6,3.1h2.4v-2.5h2.9v2.5h3.4V39.3z M113.6,28.1h1.2V28v-0.8h-1.2V28.1z M114.3,31.2c0.1-0.3,0.2-0.7,0.3-1
		h-1v1H114.3z M118.8,30.3h-1.3c-0.1,0.3-0.1,0.6-0.2,1h1.6V30.3z M118.8,27.2h-1.2v0.9v0h1.2V27.2z"/>
	<path d="M134.9,23.1c0,1-0.1,2.2-0.2,3.5c0.3,3,1.6,10.4,8.9,13.6c-0.9,0.7-1.8,1.8-2.2,2.6c-4.4-2.1-6.8-5.8-8-9.2
		c-1.2,3.4-3.4,6.9-7.4,9.4c-0.5-0.8-1.5-1.8-2.6-2.5c8.4-4.7,7.9-13.6,8-17.4H134.9z"/>
	<path d="M164,25.8c-0.8,2-2,3.6-3.5,5c1.2,0.5,2.6,0.9,4.2,1.1c-0.4,0.8-0.8,2.1-1,2.9c-2.1-0.5-4-1.2-5.6-2.2
		c-1.4,0.9-3,1.6-4.6,2.1h9.5v8.1h-3v-1.1h-4.6v1.2h-2.9v-7.9l-0.2,0c-0.1-0.4-0.4-1-0.8-1.6l-0.8,1c-0.2-0.5-0.5-1-0.8-1.7V43H147
		V36c-0.4,1.3-0.9,2.5-1.4,3.4c-0.3-0.9-0.9-2.3-1.3-3.1c1.1-1.5,2-4.2,2.4-6.5h-2v-2.8h2.3v-3.8h2.9v3.8h1.7v2.8h-1.3
		c0.6,0.6,1.6,1.7,2.1,2.2c1.1-0.3,2.2-0.7,3.2-1.2c-0.5-0.5-1-0.9-1.4-1.4c-0.3,0.3-0.6,0.7-0.9,0.9c-0.3-0.6-1.2-1.9-1.7-2.5
		c1.4-1.2,2.8-3,3.4-5l2.6,0.8c-0.1,0.4-0.3,0.8-0.5,1.2h4.5l0.5-0.1L164,25.8z M155.4,37.4v1.7h4.6v-1.7H155.4z M156.1,27.5
		c0.5,0.7,1.1,1.3,1.9,1.9c0.7-0.5,1.3-1.2,1.9-1.9H156.1z"/>
</g>
</svg>
