<?xml version="1.0" encoding="utf-8"?>
<!-- Generator: Adobe Illustrator 25.0.1, SVG Export Plug-In . SVG Version: 6.00 Build 0)  -->
<svg version="1.1" id="Layer_1" xmlns="http://www.w3.org/2000/svg" xmlns:xlink="http://www.w3.org/1999/xlink" x="0px" y="0px"
	 viewBox="0 0 560 69" style="enable-background:new 0 0 560 69;" xml:space="preserve">
<style type="text/css">
	.st0{clip-path:url(#SVGID_2_);}
	.st1{opacity:0.5;fill:#FCBC08;enable-background:new    ;}
	.st2{fill:#2D2D29;}
	.st3{font-family:'NotoSansSC-Black-83pv-RKSJ-H';}
	.st4{font-size:21px;}
</style>
<g>
	<g>
		<defs>
			<rect id="SVGID_1_" y="0" width="67.3" height="69"/>
		</defs>
		<clipPath id="SVGID_2_">
			<use xlink:href="#SVGID_1_"  style="overflow:visible;"/>
		</clipPath>
		<g class="st0">
			<path class="st1" d="M52.3,29.8c8.3,0,14.9-6.7,14.9-14.9S60.6,0,52.3,0S37.4,6.7,37.4,14.9C37.4,23.2,44.1,29.8,52.3,29.8z"/>
			<path class="st2" d="M65.4,69H1.9c-1,0-1.9-0.8-1.9-1.9C0,55,0,55.7,0.1,55.3L7.6,33c0.3-0.7,1-1.3,1.8-1.3H58
				c0.8,0,1.5,0.5,1.8,1.3c8.1,24.2,7.6,22.5,7.6,23v11.2C67.2,68.2,66.4,69,65.4,69z M3.7,65.3h59.8v-9l-6.9-20.8H10.7l-7,20.7
				V65.3z"/>
			<path class="st2" d="M65.4,35.4H1.9c-2.5,0-2.5-3.7,0-3.7h63.5C67.9,31.7,67.9,35.4,65.4,35.4z"/>
			<path class="st2" d="M0,37.3v-7.5c0-2.5,3.7-2.5,3.7,0v7.5C3.7,39.8,0,39.8,0,37.3z"/>
			<path class="st2" d="M63.5,37.3v-7.5c0-2.5,3.7-2.5,3.7,0v7.5C67.2,39.8,63.5,39.8,63.5,37.3z"/>
			<path class="st2" d="M48.6,59.7H18.7c-2.5,0-2.5-3.7,0-3.7h29.9C51.1,55.9,51.1,59.7,48.6,59.7z"/>
			<path class="st2" d="M11.2,59.7H9.3c-2.5,0-2.5-3.7,0-3.7h1.9C13.7,55.9,13.7,59.7,11.2,59.7z"/>
			<path class="st2" d="M57.9,59.7H56c-2.5,0-2.5-3.7,0-3.7h1.9C60.4,55.9,60.4,59.7,57.9,59.7z"/>
			<path class="st2" d="M39.2,52.2h-1.9c-2.5,0-2.5-3.7,0-3.7h1.9C41.7,48.5,41.7,52.2,39.2,52.2z"/>
			<path class="st2" d="M29.9,52.2H28c-2.5,0-2.5-3.7,0-3.7h1.9C32.4,48.5,32.4,52.2,29.9,52.2z"/>
			<path class="st2" d="M22.4,52.2h-1.9c-2.5,0-2.5-3.7,0-3.7h1.9C24.9,48.5,24.9,52.2,22.4,52.2z"/>
			<path class="st2" d="M14.9,52.2H13c-2.5,0-2.5-3.7,0-3.7h1.9C17.4,48.5,17.4,52.2,14.9,52.2z"/>
			<path class="st2" d="M54.2,52.2h-1.9c-2.5,0-2.5-3.7,0-3.7h1.9C56.7,48.5,56.7,52.2,54.2,52.2z"/>
			<path class="st2" d="M46.7,52.2h-1.9c-2.5,0-2.5-3.7,0-3.7h1.9C49.2,48.5,49.2,52.2,46.7,52.2z"/>
			<path class="st2" d="M39.2,44.8h-1.9c-2.5,0-2.5-3.7,0-3.7h1.9C41.7,41,41.7,44.8,39.2,44.8z"/>
			<path class="st2" d="M29.9,44.8H28c-2.5,0-2.5-3.7,0-3.7h1.9C32.4,41,32.4,44.8,29.9,44.8z"/>
			<path class="st2" d="M20.5,44.8h-1.9c-2.5,0-2.5-3.7,0-3.7h1.9C23,41,23,44.8,20.5,44.8z"/>
			<path class="st2" d="M48.6,44.8h-1.9c-2.5,0-2.5-3.7,0-3.7h1.9C51.1,41,51.1,44.8,48.6,44.8z"/>
			<path class="st2" d="M11.2,13.1H1.9c-1,0-1.9-0.8-1.9-1.9V8.6c0-3,2.3-6,5.1-6.6C9.3,1.1,13,4.3,13,8.4v2.8
				C13.1,12.2,12.3,13.1,11.2,13.1z M3.7,9.3h5.6V8.4c0-1.8-1.6-3.1-3.4-2.7C4.8,5.9,3.7,7.3,3.7,8.6V9.3z"/>
			<path class="st2" d="M56,35.4H11.2c-1,0-1.9-0.8-1.9-1.9c0-26.9,0.4-26-0.8-27.2C8,5.9,7.3,5.6,6.5,5.6C4,5.6,4,1.9,6.5,1.9h44.6
				c3.8,0,6.8,3.1,6.8,6.8v24.9C57.9,34.6,57.1,35.4,56,35.4z M13.1,31.7h41.1v-23c0-1.7-1.4-3.1-3.1-3.1H12.5
				C13.3,7.5,13.1,6.8,13.1,31.7z"/>
			<path class="st2" d="M35.5,11.2c0,2.5-3.7,2.5-3.7,0S35.5,8.7,35.5,11.2z"/>
			<path class="st2" d="M43,11.2c0,2.5-3.7,2.5-3.7,0S43,8.7,43,11.2z"/>
			<path class="st2" d="M50.4,11.2c0,2.5-3.7,2.5-3.7,0S50.4,8.7,50.4,11.2z"/>
			<path class="st2" d="M48.6,20.5H18.7c-2.5,0-2.5-3.7,0-3.7h29.9C51.1,16.8,51.1,20.5,48.6,20.5z"/>
			<path class="st2" d="M48.6,28H18.7c-2.5,0-2.5-3.7,0-3.7h29.9C51.1,24.2,51.1,28,48.6,28z"/>
		</g>
	</g>
</g>
<text transform="matrix(1 0 0 1 80.9999 41.0543)" class="st3 st4">品牌人格</text>
</svg>
